<svg xmlns="http://www.w3.org/2000/svg" version="1.1" xmlns:xlink="http://www.w3.org/1999/xlink" xmlns:svgjs="http://svgjs.dev/svgjs" width="100%" height="100%" viewBox="0 0 1000 600"><rect width="1000" height="600" x="0" y="0" fill="#ffffff"/><g><rect width="333.3333333333333" height="333.3333333333333" rx="13.333333333333334" ry="13.333333333333334" y="169.73307754427927" fill="#161b21" transform="matrix(0.8473952563939394,0,0,0.8473952563939391,0,14.936463600548663)" x="147.51077270507812"/><path d="M280.4729454577906 411.10322650987905L280.4729454577906 411.10322650987905Q279.4563525986857 410.67964615191863 279.061010931256 409.86072412652857Q278.63743057329566 409.07004079166916 278.2420889058659 406.61327471549896L278.2420889058659 406.61327471549896Q278.2420889058659 404.38241816357413 277.0278252130462 403.36582530446924Q275.7853228296957 402.34923244536435 272.34020258495116 401.53031041997417L272.34020258495116 401.53031041997417Q270.10934603302644 399.29945386804945 269.0927531739215 396.4473461244495Q268.07616031481655 393.59523838084954 267.5678638852641 387.1003395587902Q267.05956745571166 380.6054407367309 266.24064543032154 367.5874044020816L266.24064543032154 367.5874044020816Q266.63598709775124 360.471254388347 266.94661269358886 355.58596092653715Q267.2572382894265 350.7006674647273 267.6525799568562 346.4366251945927Q268.07616031481655 342.1725829244581 268.58445674436905 337.28728946264835Q269.0927531739215 332.4019960008385 270.10934603302644 325.0881751533891L270.10934603302644 325.0881751533891Q269.685765675066 320.4005525252941 270.6176424625789 314.92224656233964Q271.5212805595611 309.4439405993853 270.9282680584165 306.16825249782494L270.9282680584165 306.16825249782494Q272.34020258495116 301.7065393939755 272.73554425238086 295.9176078351835Q273.1591246103412 290.1286762763915 274.5710591368759 285.6387244820113L274.5710591368759 285.6387244820113Q274.9946394948363 282.19360423726687 275.50293592438874 279.14382565995203Q276.0112323539412 276.0940470826372 276.0112323539412 274.0608613644273L276.0112323539412 274.0608613644273Q275.5876519959808 269.99448992800757 276.40657402137094 266.52113099273237Q277.225496046761 263.0760107479879 279.65402343240055 262.0594178888829L279.65402343240055 262.0594178888829Q280.8682871252204 261.66407622145323 283.12738236767575 261.4381666972077Q285.35823891960047 261.2404958634928 286.3748317787054 262.0594178888829L286.3748317787054 262.0594178888829Q287.98443713895495 262.878339914273 288.6056883306302 264.713854798768Q289.22693952230543 266.52113099273237 289.00102999805983 268.7802262351878L289.00102999805983 268.7802262351878Q289.42461035602025 271.0110827871125 289.11398476018263 276.4893887500669Q288.803359164345 281.995933403552 287.98443713895495 288.60378698773405Q287.19375380409554 295.2116405719162 285.7535805870302 301.5088685602607L285.7535805870302 301.5088685602607Q284.1439752267807 309.83928226681496 283.21209843926783 318.4803215692069Q282.3084603422857 327.1213608715989 281.88487998432527 335.4517745781533L281.88487998432527 335.4517745781533Q281.0941966494659 352.1408406817926 280.2752746240758 363.0974526077015Q279.4563525986857 374.0823032241409 280.07760379036097 378.96759668595075L280.07760379036097 378.96759668595075Q280.07760379036097 379.588847877626 280.4729454577906 382.21504609698036Q280.8682871252204 384.8694830068655 281.4895383168956 387.21329432091295Q282.11078950857086 389.52886694442986 282.7038020097154 389.52886694442986L282.7038020097154 389.52886694442986Q284.3416460604956 389.3311961107149 285.86653534915297 386.70499789136056Q287.39142463781036 384.0505609814754 288.7186430927529 380.49248597460814Q290.0176228571648 376.93441096774086 291.26012524051526 374.2799740578557L291.26012524051526 374.2799740578557Q293.8863234598697 369.19700976233105 296.6254764413469 363.2104073698242Q299.3928681133548 357.2238049773174 301.4260538315647 351.7172603238323L301.4260538315647 351.7172603238323Q305.06884491002404 343.1891757835631 308.73987467901406 337.0896186289334Q312.38266575747343 330.99006147430384 315.65835385903375 323.45033110260886L315.65835385903375 323.45033110260886Q316.8726175518535 320.20288169157925 320.00711220076045 314.0186084653575Q323.169845540198 307.80609654860507 326.021953283798 302.52546141936557L326.021953283798 302.52546141936557Q329.4670735285425 297.24482629012607 332.62980686798005 292.3595328283162Q335.764301516887 287.47423936650637 340.0565824775523 279.3414964936669L340.0565824775523 279.3414964936669Q345.9302301079364 269.5709095700472 349.2059182094967 265.92811849158784Q352.45336762052636 262.2570887225978 355.700817031556 262.2570887225978L355.700817031556 262.2570887225978Q357.93167358348074 261.86174705516805 358.4399700130332 262.17237265100573Q358.9482664425857 262.45475955631264 360.388439659651 264.48794527452253L360.388439659651 264.48794527452253Q361.9980450199005 266.7470405169779 362.11099978202327 269.0626131404947Q362.19571585361535 271.4064244545422 360.0778140638134 275.47279589096195Q357.93167358348074 279.53916732738173 352.6510384542412 287.07889769907666L352.6510384542412 287.07889769907666Q348.5846670178215 293.1784548537063 343.6146574844196 301.31119772654574Q338.61640926048693 309.4439405993853 334.4653217524751 316.64480668471197Q330.2859955539326 323.8739114605693 328.4504806694376 327.3190317053138L328.4504806694376 327.3190317053138Q327.43388781033264 329.54988825723854 326.61496578494257 332.00665433340873Q325.82428245008316 334.4351817190484 324.186438399303 336.46836743725817L324.186438399303 336.46836743725817Q322.1532526810931 338.50155315546806 318.7081324363486 345.222361501773Q315.2347735010734 351.91493115754713 311.9873240900437 358.4380686701371L311.9873240900437 358.4380686701371Q308.31629432105365 366.96615321040633 306.19839253125167 371.73849191009344Q304.05225205091904 376.5390693003112 302.7250335959765 379.588847877626Q301.4260538315647 382.6386264549408 300.1835514482142 385.4624955080101Q298.96928775539436 388.31460325161004 297.13377287089935 392.57864552174465L297.13377287089935 392.57864552174465Q296.1171800117944 396.05200445701985 294.3946198894222 399.80775029760196Q292.6720597670499 403.56349613818406 292.47438893333504 404.7777598310039L292.47438893333504 404.7777598310039Q291.0342157162697 407.03685507345926 288.7186430927529 408.7594151958316Q286.3748317787054 410.4819753182038 284.1439752267807 411.10322650987905Q281.88487998432527 411.69623901102364 280.4729454577906 411.10322650987905Z " fill="#ffffff" transform="matrix(0.8473952563939394,0,0,0.8473952563939391,0,14.936463600548663)"/><path d="M566.608933410775 367.6171778261829L566.608933410775 367.6171778261829Q565.257204321666 366.24173419165095 564.6406261406688 364.20228328527594Q564.0477625050946 362.13911783347794 564.2137643230554 360.09966692710293Q564.4034806864393 358.03650147530493 565.0674879582822 356.68477238619585L565.0674879582822 356.68477238619585Q565.0674879582822 355.3093287516639 565.4943497758956 354.550463298129Q565.9212115935089 353.7678832991711 565.7552097755482 353.10387602732817L565.7552097755482 353.10387602732817Q565.5892079575874 352.41615421006213 566.1109279568927 350.70870693960865Q566.608933410775 349.00125966915516 567.1306534100802 347.4598142166624L567.1306534100802 347.4598142166624Q568.3163806812285 344.73264149302133 569.6918243157604 340.890885134501Q571.0435534048695 337.04912877598053 572.2529952214406 333.27851605372905Q573.438722492589 329.53161787690055 574.2924461278158 326.8044451532595Q575.1461697630425 324.07727242961846 575.3121715810032 323.38955061235254L575.3121715810032 323.38955061235254Q575.3121715810032 321.32638516055454 578.0630588500673 321.1603833425937L578.0630588500673 321.1603833425937Q580.1025097564423 320.4726615253278 581.1222352096297 321.08923970632486Q582.1419606628173 321.68210334189905 583.8494079332708 324.40927606554L583.8494079332708 324.40927606554Q585.2248515678027 325.78471970007206 584.8928479318813 328.511892423713Q584.5371297505368 331.23906514735404 582.6636806621225 335.34168150552705L582.6636806621225 335.34168150552705Q581.9759588448565 336.69341059463613 581.0510915733608 339.25458150031636Q580.1025097564423 341.8157524059966 579.7705061205207 343.8789178577946L579.7705061205207 343.8789178577946Q579.0827843032548 345.23064694690356 578.1342024863361 347.72067421631493Q577.2093352148404 350.1869869403034 576.5216133975745 352.41615421006213L576.5216133975745 352.41615421006213Q576.16589521623 353.2698778452889 575.8338915803085 354.8824669340505Q575.5018879443869 356.51877056823514 574.9801679450818 358.2973614749575Q574.4584479457765 360.09966692710293 573.6047243105497 361.4513960162119L573.6047243105497 361.4513960162119Q572.0869934034799 368.47090146140965 570.8064079506398 369.6566287325579Q569.5258224977997 370.8423560037062 566.608933410775 367.6171778261829ZM583.1854006614278 298.27584700943225L583.1854006614278 298.27584700943225Q582.331677026201 297.4221233742054 581.643955208935 295.80953428544376Q580.956233391669 294.1969451966821 580.7902315737083 292.7266433804583Q580.6242297557475 291.2800561096574 581.1222352096297 291.2800561096574L581.1222352096297 291.2800561096574Q582.4976788441618 291.1140542916967 584.371127932576 288.3868815680556Q586.2445770209903 285.6597088444146 585.9125733850688 283.59654339261664L585.9125733850688 283.59654339261664Q585.9125733850688 282.90882157535066 586.4105788389511 282.31595793977647Q586.9322988382562 281.7230943042024 587.6200206555222 281.5570924862416L587.6200206555222 281.5570924862416Q589.6594715618972 280.1816488517096 591.6277788320034 281.1302306686282Q593.5960861021096 282.0550979401239 595.303533372563 284.80598520918784L595.303533372563 284.80598520918784Q596.8449788250557 288.03116338671117 596.1572570077898 290.165472474778Q595.4695351905239 292.29978156284494 592.3866442855383 296.0703942850964L592.3866442855383 296.0703942850964Q589.8254733798581 299.4852888260034 587.6911642917912 299.8172924619249Q585.5568552037244 300.17301064326944 583.1854006614278 298.27584700943225ZM601.7776042730326 373.071523273465L601.7776042730326 373.071523273465Q598.5524260955093 373.92524690869175 596.5841188254032 371.69607963893293Q594.6158115552971 369.4906269145972 594.2838079193755 364.866290557119Q593.9280897380311 360.26566874506364 595.303533372563 353.9575996625549L595.303533372563 353.9575996625549Q596.1572570077898 351.8944342107569 596.655262461672 349.92612694065076Q597.1769824609773 347.9815342159676 597.1769824609773 346.77209239939634L597.1769824609773 346.77209239939634Q597.5089860968988 345.06464512894286 598.5524260955093 341.74460876972773Q599.5721515486969 338.4008578650896 600.757878819845 334.81996150622183Q601.9673206364163 331.23906514735404 603.0581897258727 328.41703424202115Q604.1727733607521 325.59500333668825 604.5284915420966 324.9309960648453L604.5284915420966 324.9309960648453Q605.1924988139397 324.9309960648453 605.7142188132448 323.72155424827406Q606.2359388125501 322.5358269771258 606.2359388125501 321.32638516055454L606.2359388125501 321.32638516055454Q606.2359388125501 319.97465607144545 606.8288024481242 318.26720880099197Q607.4216660836983 316.5597615305385 608.1093879009643 315.87203971327244L608.1093879009643 315.87203971327244Q608.1093879009643 315.0183160780457 608.5362497185777 313.9037324431664Q608.963111536191 312.789148808287 608.963111536191 312.12514153644395L608.963111536191 312.12514153644395Q608.963111536191 311.437419719178 609.3899733538044 310.749697901912Q609.8168351714178 310.06197608464595 609.8168351714178 309.37425426738L609.8168351714178 309.37425426738Q611.0025624425662 307.1688015430442 612.9708697126722 302.3073197313363Q614.9391769827783 297.4221233742054 617.239487888806 291.4460579276182Q619.5397987948336 285.4699924810309 621.6029642466316 279.6836433978274Q623.6424151530066 273.8735797692009 624.9230006058467 269.8658215927197Q626.2035860586868 265.8343488708156 626.2035860586868 264.98062523558883L626.2035860586868 264.98062523558883Q626.2035860586868 263.6288961464798 626.8913078759529 262.9411743292138Q627.5790296932189 262.2534525119478 628.930758782328 262.2534525119478L628.930758782328 262.2534525119478Q629.4524787816331 261.75544705806556 630.2113442351681 261.5657306946818Q630.9939242341259 261.39972887672104 631.6579315059689 261.39972887672104L631.6579315059689 261.39972887672104Q631.6579315059689 261.39972887672104 632.345653323235 262.0874506939871Q633.033375140501 262.77517251125306 634.4088187750328 264.1269016003621L634.4088187750328 264.1269016003621Q635.7605478641419 265.33634341693335 636.0214078637946 266.877788869426Q636.2822678634471 268.3955197764958 636.2822678634471 270.4586852282938L636.2822678634471 270.4586852282938Q636.2822678634471 272.66413795262963 635.7605478641419 274.3715852230831Q635.2625424102596 276.0790324935366 633.7210969577669 279.32792521648287Q632.1796515052741 282.57681793942913 628.930758782328 289.4066070212432L628.930758782328 289.4066070212432Q627.5790296932189 292.82150156215016 626.0375842407261 295.80953428544376Q624.4961387882333 298.7975670087375 624.4961387882333 299.4852888260034L624.4961387882333 299.4852888260034Q624.4961387882333 300.17301064326944 623.9032751526593 301.5247397323784Q623.3104115170852 302.9001833669105 622.6226896998191 304.9396342732855L622.6226896998191 304.9396342732855Q621.9349678825531 306.31507790781745 620.7492406114048 308.94739244976665Q619.5397987948336 311.60342153713873 618.2592133419935 314.59145426043233Q616.9786278891534 317.57948698372604 616.1249042539266 319.7137960717929Q615.2711806186999 321.84810515985976 615.2711806186999 322.1801087957813L615.2711806186999 322.1801087957813Q615.2711806186999 322.8678306130473 615.2000369824309 323.55555243031324Q615.1051788007392 324.2432742475793 614.4174569834731 324.9309960648453L614.4174569834731 324.9309960648453Q613.7297351662071 324.9309960648453 613.6585915299382 325.8558633363409Q613.5637333482464 326.8044451532595 613.5637333482464 326.8044451532595L613.5637333482464 326.8044451532595Q613.5637333482464 328.511892423713 610.8365606246053 335.8396869594093L610.8365606246053 335.8396869594093Q608.1093879009643 345.23064694690356 605.8090769949367 353.10387602732817Q603.4850515434861 360.9533905623297 603.4850515434861 365.72001419234573L603.4850515434861 365.72001419234573Q603.4850515434861 369.82263055051874 603.3190497255252 371.10321600335885Q603.1530479075645 372.38380145619897 601.7776042730326 373.071523273465ZM632.345653323235 373.071523273465L632.345653323235 373.071523273465Q629.0967606002887 373.92524690869175 627.1521678756055 371.69607963893293Q625.1838606054994 369.4906269145972 624.828142424155 364.866290557119Q624.4961387882333 360.26566874506364 625.8715824227654 353.9575996625549L625.8715824227654 353.9575996625549Q626.7253060579922 351.8944342107569 627.2233115118744 349.92612694065076Q627.7450315111796 347.9815342159676 627.7450315111796 346.77209239939634L627.7450315111796 346.77209239939634Q628.0770351471011 345.06464512894286 629.0967606002887 341.74460876972773Q630.1402005988991 338.4008578650896 631.3259278700474 334.81996150622183Q632.5116551411957 331.23906514735404 633.6262387760751 328.41703424202115Q634.7408224109545 325.59500333668825 635.0728260468759 324.9309960648453L635.0728260468759 324.9309960648453Q635.7605478641419 324.9309960648453 636.2822678634471 323.72155424827406Q636.7802733173294 322.5358269771258 636.7802733173294 321.32638516055454L636.7802733173294 321.32638516055454Q636.7802733173294 319.97465607144545 637.3968514983266 318.26720880099197Q637.9897151339007 316.5597615305385 638.6774369511667 315.87203971327244L638.6774369511667 315.87203971327244Q638.6774369511667 315.0183160780457 639.10429876878 313.9037324431664Q639.5311605863934 312.789148808287 639.5311605863934 312.12514153644395L639.5311605863934 312.12514153644395Q639.5311605863934 311.437419719178 639.9580224040068 310.749697901912Q640.3848842216202 310.06197608464595 640.3848842216202 309.37425426738L640.3848842216202 309.37425426738Q641.5706114927684 307.1688015430442 643.5389187628746 302.3073197313363Q645.5072260329807 297.4221233742054 647.8075369390083 291.4460579276182Q650.107847845036 285.4699924810309 652.147298751411 279.6836433978274Q654.210464203209 273.8735797692009 655.4910496560491 269.8658215927197Q656.7716351088892 265.8343488708156 656.7716351088892 264.98062523558883L656.7716351088892 264.98062523558883Q656.7716351088892 263.6288961464798 657.4593569261552 262.9411743292138Q658.1233641979983 262.2534525119478 659.4988078325302 262.2534525119478L659.4988078325302 262.2534525119478Q660.0205278318355 261.75544705806556 660.7793932853704 261.5657306946818Q661.5382587389053 261.39972887672104 662.2259805561713 261.39972887672104L662.2259805561713 261.39972887672104Q662.2259805561713 261.39972887672104 662.9137023734372 262.0874506939871Q663.6014241907033 262.77517251125306 664.9531532798123 264.1269016003621L664.9531532798123 264.1269016003621Q666.3285969143443 265.33634341693335 666.5894569139969 266.877788869426Q666.8503169136495 268.3955197764958 666.8503169136495 270.4586852282938L666.8503169136495 270.4586852282938Q666.8503169136495 272.66413795262963 666.3285969143443 274.3715852230831Q665.8068769150391 276.0790324935366 664.2891460079693 279.32792521648287Q662.7477005554765 282.57681793942913 659.4988078325302 289.4066070212432L659.4988078325302 289.4066070212432Q658.1233641979983 292.82150156215016 656.6056332909285 295.80953428544376Q655.0641878384357 298.7975670087375 655.0641878384357 299.4852888260034L655.0641878384357 299.4852888260034Q655.0641878384357 300.17301064326944 654.4713242028616 301.5247397323784Q653.8547460218645 302.9001833669105 653.1907387500214 304.9396342732855L653.1907387500214 304.9396342732855Q652.5030169327555 306.31507790781745 651.2935751161842 308.94739244976665Q650.107847845036 311.60342153713873 648.8272623921958 314.59145426043233Q647.5466769393557 317.57948698372604 646.692953304129 319.7137960717929Q645.8392296689021 321.84810515985976 645.8392296689021 322.1801087957813L645.8392296689021 322.1801087957813Q645.8392296689021 322.8678306130473 645.7443714872104 323.55555243031324Q645.6732278509414 324.2432742475793 644.9855060336754 324.9309960648453L644.9855060336754 324.9309960648453Q644.2977842164095 324.9309960648453 644.2266405801406 325.8558633363409Q644.1317823984486 326.8044451532595 644.1317823984486 326.8044451532595L644.1317823984486 326.8044451532595Q644.1317823984486 328.511892423713 641.4046096748077 335.8396869594093L641.4046096748077 335.8396869594093Q638.6774369511667 345.23064694690356 636.353411499716 353.10387602732817Q634.0531005936884 360.9533905623297 634.0531005936884 365.72001419234573L634.0531005936884 365.72001419234573Q634.0531005936884 369.82263055051874 633.8870987757277 371.10321600335885Q633.7210969577669 372.38380145619897 632.345653323235 373.071523273465ZM657.2696405627715 366.9294560089169L657.2696405627715 366.9294560089169Q656.6056332909285 365.5540123743849 655.5621932923179 364.79514692085Q654.5424678391305 364.01256692189213 654.5424678391305 363.3485596500492L654.5424678391305 363.3485596500492Q654.5424678391305 362.66083783278316 654.4713242028616 361.8782578338253Q654.3764660211698 361.1193923802904 653.6887442039038 360.43167056302445L653.6887442039038 360.43167056302445Q652.835020568677 359.4119451098369 653.8547460218645 355.73619056927726Q654.898186020475 352.0604360287176 657.2696405627715 346.7009487631275Q659.664809650491 341.31774695211436 662.9137023734372 335.34168150552705L662.9137023734372 335.34168150552705Q664.2891460079693 333.9662378709951 665.6408750970783 331.76078514665926Q667.0163187316102 329.53161787690055 667.7040405488763 328.8438960596345L667.7040405488763 328.8438960596345Q667.7040405488763 328.1561742423686 668.2020460027586 327.5633106067944Q668.7237660020638 326.9704469712203 669.4114878193297 326.9704469712203L669.4114878193297 326.9704469712203L669.4114878193297 325.95072151803276Q669.4114878193297 325.096997882806 671.0240769080914 323.033832431008Q672.636665996853 320.994381524633 675.0318350845725 318.52806880064463Q677.4270041722921 316.03804153123326 679.9881750779723 313.7377306252056Q682.5493459836526 311.437419719178 684.2567932541061 310.41769426599046L684.2567932541061 310.41769426599046Q687.8376896129739 308.02252517827094 691.6794459714943 307.5008051789657Q695.5212023300146 307.0027997250835 698.2483750536556 309.2082524494192L698.2483750536556 309.2082524494192Q698.7700950529609 309.7299724487244 699.9558223241091 310.9156997198727Q701.1652641406804 312.12514153644395 702.777853229442 313.5717288072449Q704.4141568636267 315.0183160780457 706.1216041340801 316.5597615305385L706.1216041340801 316.5597615305385L712.429673216589 322.1801087957813L709.3467823116034 330.7173451480488Q707.1413295872676 337.5471342298629 708.255913222147 342.66947604122333Q709.3467823116034 347.7918178525839 711.5759495813622 351.5624305748354L711.5759495813622 351.5624305748354Q712.429673216589 353.4358796632496 715.085702303961 355.1433269337032Q717.7180168459101 356.85077420415666 720.1131859336297 357.1827778400782L720.1131859336297 357.1827778400782Q721.4886295681617 357.3724942034619 722.67435683931 358.2262178386886Q723.8600841104583 359.07994147391537 723.8600841104583 360.9533905623297L723.8600841104583 360.9533905623297Q723.8600841104583 362.66083783278316 723.1960768386152 363.6805632859707Q722.5083550213492 364.70028873915817 720.8009077508957 365.0560069205027L720.8009077508957 365.0560069205027Q715.1568459402299 365.72001419234573 710.295364128522 362.30511965143864Q705.4338823168141 358.8902251105317 701.3312659586411 351.04071057553017L701.3312659586411 351.04071057553017Q700.6435441413752 350.0209851223426 699.5289605064958 347.1989542170097Q698.4380914170393 344.3769233116768 698.2483750536556 343.5231996764501L698.2483750536556 343.5231996764501Q697.5843677818126 344.3769233116768 695.6872041479754 346.7009487631275Q693.8137550595611 349.00125966915516 692.7940296063737 350.0209851223426L692.7940296063737 350.0209851223426Q680.6758968952383 362.30511965143864 671.8778005433182 366.5025941913035Q663.079704191398 370.6763541857455 657.2696405627715 366.9294560089169ZM663.4354223727426 357.3724942034619L663.4354223727426 357.3724942034619Q663.4354223727426 358.55822147461015 667.0874623678792 357.27763602177004Q670.7632169084388 355.9970505689299 675.0318350845725 352.58215602802284L675.0318350845725 352.58215602802284Q680.841898713199 347.6258160346231 686.7231059780945 341.6497505880359Q692.6280277884129 335.6736851414486 696.2089241472806 330.551343330088L696.2089241472806 330.551343330088L699.9558223241091 324.40927606554Q698.2483750536556 320.4726615253278 696.3037823289725 319.02607425452686Q694.3354750588665 317.57948698372604 692.9600314243344 317.57948698372604L692.9600314243344 317.57948698372604Q690.7545786999985 317.57948698372604 686.391102342173 321.68210334189905Q682.0276259843473 325.78471970007206 677.0950005363705 332.614508781886Q672.1386605429708 339.44429786370006 667.7040405488763 347.6258160346231L667.7040405488763 347.6258160346231Q665.9965932784228 351.04071057553017 664.7160078255827 354.1947451167845Q663.4354223727426 357.3724942034619 663.4354223727426 357.3724942034619ZM748.618069532034 405.6790232300423L748.618069532034 405.6790232300423Q743.851445902018 407.5524723184566 738.6342459089657 405.0861595944682Q733.4407604613363 402.6198468704798 729.6701477390848 397.30778869573555L729.6701477390848 397.30778869573555Q728.9824259218187 396.288063242548 728.0575586503231 394.15375415448113Q727.1089768334045 392.0194450664143 726.3501113798695 389.81399234207845Q725.5675313809118 387.58482507231975 725.401529562951 385.87737780186626Q725.2355277449902 384.1699305314128 725.7572477442955 383.83792689549125L725.7572477442955 383.83792689549125Q726.2552531981778 383.31620689618603 727.4646950147489 383.48220871414674Q728.6504222858972 383.64821053210756 729.7650059207766 384.3359323493735Q730.879589555656 385.0236541666395 731.2115931915775 386.04337961982696L731.2115931915775 386.04337961982696Q731.7333131908828 387.2528214363982 732.8241822803392 389.1262705248125Q733.9387659152185 390.9997196132267 735.3142095497506 392.5411650657195Q736.6659386388595 394.0826105182123 737.3536604561256 394.248612336173L737.3536604561256 394.248612336173Q740.6025531790718 395.79005778866576 742.1439986315645 395.60034142528207Q743.6854440840573 395.43433960732125 744.8711713552055 394.5806159720945L744.8711713552055 394.5806159720945Q747.7643458968073 392.3751632477588 749.6615095306446 388.770552343468Q751.5349586190588 385.1896559846002 753.9301277067783 377.67214508552024L753.9301277067783 377.67214508552024Q755.8035767951926 371.3640760030114 757.7718840652987 364.2734269215448Q759.7164767899819 357.1827778400782 761.2579222424746 353.2698778452889L761.2579222424746 353.2698778452889Q761.7796422417798 351.2067123934909 762.5385076953147 349.76012512269006Q763.3210876942726 348.3135378518891 763.9850949661156 347.6258160346231L763.9850949661156 347.6258160346231L765.0285349647261 347.6258160346231Q761.2579222424746 350.0209851223426 758.3647477008728 353.10387602732817Q755.4478586138481 356.1630523868906 751.0132386197536 358.03650147530493L751.0132386197536 358.03650147530493Q749.9935131665661 359.2459432918762 745.985754990085 359.50680329152874Q741.9779968136038 359.7439487457584 738.2073840913523 358.55822147461015L738.2073840913523 358.55822147461015Q735.8122150036328 357.1827778400782 734.7213459141764 356.51877056823514Q733.606762279297 355.8310487509691 733.0138986437229 354.62160693439785Q732.3973204627258 353.4358796632496 731.3775950095383 350.87470875756935L731.3775950095383 350.87470875756935Q730.19186773839 348.3135378518891 731.0455913736167 342.50347422326263Q731.8993150088435 336.69341059463613 734.1047677331793 330.9070615114325L734.1047677331793 330.9070615114325Q736.1679331849773 326.6384433352988 740.0808331797665 321.68210334189905Q744.0174477199788 316.7257633484992 748.4520677140733 312.71800517201814Q752.8866877081679 308.710246995537 756.4912986124586 307.66680699692654L756.4912986124586 307.66680699692654Q757.8430277015676 307.0027997250835 759.4793313357522 306.7419397254308Q761.0919204245139 306.4810797257783 764.1748113294993 307.334803361005L764.1748113294993 307.334803361005Q767.0679858711011 307.66680699692654 768.6094313235939 308.61538881384513Q770.1508767760865 309.5639706307637 773.5657713169936 312.4571451723655L773.5657713169936 312.4571451723655Q775.7712240413294 314.6863124421242 777.2178113121303 316.89176516646Q778.6881131283542 319.1209324362187 779.5418367635809 321.51610152393823L779.5418367635809 321.51610152393823Q780.7275640347292 324.07727242961846 780.4667040350765 326.21158151768543Q780.205844035424 328.3458906057523 778.4983967649705 330.551343330088L778.4983967649705 330.551343330088Q776.9806658579007 332.7805105998468 775.2732185874472 334.98596332418253Q773.5657713169936 337.21513059394135 772.7120476817669 341.15174513415354L772.7120476817669 341.15174513415354Q771.8583240465401 346.2740869455141 769.9611604127028 352.6770142097147Q768.0877113242886 359.07994147391537 766.7359822351796 364.53428692119746L766.7359822351796 364.53428692119746L763.9850949661156 375.11097417984Q759.7164767899819 389.62427597869475 755.8747204314615 396.7149250601615Q752.0329640729411 403.8055741416281 748.618069532034 405.6790232300423ZM742.476002267486 351.04071057553017L742.476002267486 351.04071057553017Q745.8908968083931 350.87470875756935 748.9737877133786 349.6889814864211Q752.0329640729411 348.4795396698498 754.9498531599659 345.65750876451705Q757.8430277015676 342.85919240460703 760.7599167885924 338.4008578650896L760.7599167885924 338.4008578650896Q763.6530913301941 334.3219560523396 764.8388186013424 329.7924778765532Q766.0482604179136 325.2629997007667 765.6925422365691 320.994381524633L765.6925422365691 320.994381524633Q765.5265404186084 318.26720880099197 764.8388186013424 317.4134851657652Q764.1748113294993 316.5597615305385 761.9456440597406 316.89176516646L761.9456440597406 316.89176516646Q758.6967513367944 317.4134851657652 754.783851342005 320.40151788905894Q750.8472368017929 323.38955061235254 747.4323422608858 327.82417060644707L747.4323422608858 327.82417060644707Q744.8711713552055 331.23906514735404 743.1637240847521 336.0294033227931L743.1637240847521 336.0294033227931Q741.4562768142986 341.15174513415354 741.124273178377 345.7523669462089Q740.7685549970325 350.35298875826413 742.476002267486 351.04071057553017ZM821.3742948896918 367.0954578268777L821.3742948896918 367.0954578268777Q817.7696839854011 370.17834873186314 813.0742039916539 370.6763541857455Q808.3787239979067 371.1980741850507 803.9441040038123 369.22976691494455Q799.5094840097178 367.2614596448384 796.616309468116 363.1588432866654L796.616309468116 363.1588432866654Q793.6994203810912 359.4119451098369 792.8456967458644 354.550463298129Q791.9919731106377 349.6889814864211 792.6796949279037 341.8157524059966L792.6796949279037 341.8157524059966Q793.2014149272089 335.17567968756634 796.9483131040374 328.41703424202115Q800.695211280866 321.68210334189905 806.0784130918792 316.3937597125778Q811.4616149028923 311.0817015378335 816.7499585322136 309.0422506314585L816.7499585322136 309.0422506314585Q819.3111294378938 307.334803361005 821.1134348900391 307.42966154269686Q822.8920257967616 307.5008051789657 826.6626385190132 307.85652336031023L826.6626385190132 307.85652336031023Q830.5755385138024 308.35452881419246 832.5438457839084 309.37425426738Q834.5121530540146 310.41769426599046 835.6978803251629 312.12514153644395L835.6978803251629 312.12514153644395Q838.2590512308432 314.6863124421242 839.1127748660699 317.15262516611267Q839.9664985012967 319.61893789010105 839.9664985012967 322.0141069778206L839.9664985012967 322.0141069778206Q839.3024912294536 325.78471970007206 834.9390148716279 331.1442069656622Q830.5755385138024 336.5274087766753 823.5797476140276 339.9423033175823L823.5797476140276 339.9423033175823Q819.832849437199 341.15174513415354 815.3982294431046 340.96202877076985Q810.9398949035871 340.79602695280914 808.0467203619853 338.756576046434L808.0467203619853 338.756576046434Q804.797827639039 337.38113241190206 803.7781021858515 339.1834378640475Q802.7583767326639 340.96202877076985 801.9046530974372 347.7918178525839L801.9046530974372 347.7918178525839Q801.2169312801713 354.28960329847644 802.9243785506247 357.27763602177004Q804.6318258210782 360.26566874506364 807.52500036268 360.78738874436885L807.52500036268 360.78738874436885Q810.9398949035871 361.4513960162119 812.9082021736931 361.71225601586457Q814.8765094437993 361.9731160155171 817.7696839854011 360.26566874506364L817.7696839854011 360.26566874506364Q820.520571254465 358.55822147461015 821.1845785263081 358.2973614749575Q821.8723003435741 358.03650147530493 822.2991621611875 357.60963965769156Q822.7260239788009 357.1827778400782 824.4334712492544 355.4753305696247L824.4334712492544 355.4753305696247Q825.6429130658255 354.28960329847644 826.3069203376685 353.69673966290225Q826.9946421549346 353.10387602732817 827.8483657901613 353.10387602732817L827.8483657901613 353.10387602732817Q828.7020894253881 353.10387602732817 829.3898112426541 353.86274148086295Q830.0775330599201 354.62160693439785 830.7652548771861 354.97732511574236L830.7652548771861 354.97732511574236Q832.4727021476396 354.97732511574236 831.524120330721 357.01677602211737Q830.5755385138024 359.07994147391537 827.8483657901613 361.8782578338253Q825.1211930665204 364.70028873915817 821.3742948896918 367.0954578268777ZM821.1845785263081 330.9070615114325L821.1845785263081 330.9070615114325Q823.0817421601453 330.0533378762058 825.1211930665204 328.41703424202115Q827.1606439728953 326.8044451532595 828.6309457891192 324.83613788315336Q830.0775330599201 322.8678306130473 830.0775330599201 321.51610152393823L830.0775330599201 321.51610152393823Q830.0775330599201 319.1209324362187 827.8483657901613 317.4846288020342Q825.6429130658255 315.87203971327244 821.1845785263081 317.0577669844207L821.1845785263081 317.0577669844207Q819.3111294378938 317.57948698372604 816.9159603501744 319.5477942538321Q814.5445058078778 321.51610152393823 812.4101967198109 323.88755606623477Q810.275887631744 326.2827251539543 808.9953021789039 328.1561742423686Q807.7147167260637 330.0533378762058 808.0467203619853 330.3853415121273L808.0467203619853 330.3853415121273Q808.5684403612905 331.23906514735404 810.9398949035871 331.6659269649674Q813.3350639913066 332.0927887825808 816.3230967146002 331.9267869646201Q819.3111294378938 331.76078514665926 821.1845785263081 330.9070615114325ZM840.1562148646804 411.32308504070807L840.1562148646804 411.32308504070807Q839.4684930474143 411.32308504070807 838.4487675942269 411.3942286769769Q837.4053275956164 411.4890868586689 836.5516039603897 409.9476414061761L836.5516039603897 409.9476414061761Q835.8875966885466 409.09391777094936 835.7927385068547 407.3864705004959Q835.6978803251629 405.6790232300423 836.5516039603897 401.24440323594786L836.5516039603897 401.24440323594786Q837.4053275956164 398.351228694346 837.9270475949216 395.5291977890131Q838.4487675942269 392.7071668836803 838.4487675942269 391.33172324914824L838.4487675942269 391.33172324914824Q838.4487675942269 390.6677159773053 838.8756294118402 388.69940870719915Q839.3024912294536 386.731101437093 839.3024912294536 385.87737780186626L839.3024912294536 385.87737780186626Q840.1562148646804 384.5019341673343 840.6542203185627 382.13047962503776Q841.1759403178678 379.73531053731824 841.1759403178678 377.86186144890394L841.1759403178678 377.86186144890394Q841.1759403178678 375.79869599710594 843.2153912242429 374.09124872665245L843.2153912242429 374.09124872665245Q843.2153912242429 372.7395196375435 843.808254859817 370.6763541857455Q844.4248330408141 368.6369032793705 844.4248330408141 367.94918146210443L844.4248330408141 367.94918146210443Q844.9228384946964 365.5540123743849 846.7251439468417 359.50680329152874Q848.5037348535641 353.4358796632496 851.1597639409363 345.7523669462089Q853.8157930283085 338.0688542291681 856.3769639339887 330.7173451480488Q858.9381348396689 323.38955061235254 860.977585746044 318.26720880099197L860.977585746044 318.26720880099197Q863.0170366524189 313.47687062555303 863.7996166513768 309.9908324483771Q864.5584821049117 306.4810797257783 864.5584821049117 304.7736324553247L864.5584821049117 304.7736324553247Q864.5584821049117 304.08591063805875 864.9142002862561 303.6590488204454Q865.2462039221776 303.232187002832 866.4319311933259 301.8804579137229L866.4319311933259 301.8804579137229Q868.1393784637794 300.17301064326944 869.4199639166196 300.8370179151125Q870.7005493694597 301.5247397323784 872.597713003297 302.9001833669105L872.597713003297 302.9001833669105Q873.949442092406 305.1056360912462 874.5423057279802 306.647081543739Q875.1588839089773 308.18852699623176 874.4711620917112 311.93542517306025L874.4711620917112 311.93542517306025Q874.4711620917112 314.4965960787405 873.6174384564845 316.3937597125778Q872.7637148212577 318.26720880099197 872.0759930039917 319.1920760724877Q871.3882711867257 320.14065788940627 871.7439893680703 319.97465607144545L871.7439893680703 319.97465607144545Q878.739780267845 316.7257633484992 884.1229820788581 316.46490334884663Q889.4824693444483 316.20404334919397 893.1582238850079 318.33835243726094Q896.8339784255677 320.4726615253278 898.7074275139819 324.2432742475793Q900.5808766023961 327.9901724244078 900.5808766023961 332.9465124178075L900.5808766023961 332.9465124178075Q900.5808766023961 334.98596332418253 899.7271529671693 337.80799422951543Q898.8734293319426 340.6300251348483 897.5928438791025 342.930336040876Q896.3122584262624 345.23064694690356 895.2925329730749 346.2740869455141L895.2925329730749 346.2740869455141Q894.6048111558089 346.2740869455141 893.9408038839658 347.36495603497053Q893.2530820666998 348.4795396698498 892.5653602494338 349.8549833043819L892.5653602494338 349.8549833043819Q891.1899166149019 351.5624305748354 888.2018838916081 353.69673966290225Q885.2138511683145 355.8310487509691 882.3206766267128 357.1116342038092Q879.427502085111 358.39221965664944 878.052058450579 357.8704996573441L878.052058450579 357.8704996573441Q878.052058450579 357.8704996573441 877.6251966329655 357.96535783903596Q877.1983348153523 358.03650147530493 877.1983348153523 358.8902251105317L877.1983348153523 358.8902251105317Q877.1983348153523 359.2459432918762 874.4711620917112 360.3605269267555Q871.7439893680703 361.4513960162119 868.1393784637794 362.3999778331305Q864.5584821049117 363.3485596500492 861.8313093812707 363.3485596500492L861.8313093812707 363.3485596500492Q858.2504130224029 363.3485596500492 856.7089675699101 361.9731160155171L856.7089675699101 361.9731160155171Q856.3769639339887 362.30511965143864 855.9501021163753 362.9928414687047Q855.523240298762 363.6805632859707 855.523240298762 364.20228328527594L855.523240298762 364.20228328527594Q855.523240298762 365.2220087384634 854.7406602998041 368.0440396437963Q853.9817948462692 370.8423560037062 852.9620693930817 373.4035269093864Q851.9186293944712 375.96469781506676 851.0649057592444 375.96469781506676L851.0649057592444 375.96469781506676Q851.0649057592444 375.96469781506676 850.7329021233229 376.486417814372Q850.4008984874014 377.0081378136772 851.0649057592444 377.86186144890394L851.0649057592444 377.86186144890394Q851.0649057592444 377.86186144890394 850.9937621229756 379.8064541735871Q850.8989039412836 381.77476144369325 850.0451803060569 383.1502050782252L850.0451803060569 383.1502050782252Q850.0451803060569 384.5019341673343 849.5471748521746 387.2528214363982Q849.0254548528694 389.97999416003927 848.3377330356034 391.33172324914824L848.3377330356034 391.33172324914824Q848.3377330356034 393.39488870094624 847.7448694000293 395.3631959710524Q847.1520057644552 397.30778869573555 846.4642839471892 397.30778869573555L846.4642839471892 397.30778869573555Q845.7765621299231 397.49750505911925 845.6105603119624 399.4420977838024Q845.4445584940016 401.41040505390856 845.4445584940016 402.2641286891353L845.4445584940016 402.2641286891353Q845.2785566760409 406.53274686526913 843.7371112235481 408.92791595298854Q842.1956657710554 411.32308504070807 840.1562148646804 411.32308504070807ZM860.8115839280832 354.28960329847644L860.8115839280832 354.28960329847644Q862.1633130171922 354.28960329847644 866.4319311933259 353.10387602732817Q870.7005493694597 351.8944342107569 875.2300275452461 350.11584330403446Q879.7595057210325 348.3135378518891 881.9886729907912 346.4400887634748L881.9886729907912 346.4400887634748Q886.4232929848858 342.50347422326263 888.8896057088741 337.4759905935939Q891.3796329782856 332.4247924185023 888.4627438912607 327.82417060644707L888.4627438912607 327.82417060644707Q887.1110148021517 325.42900151872755 883.506403897861 325.8558633363409Q879.9255075389933 326.2827251539543 875.6568893628596 328.6778942416738Q871.3882711867257 331.07306332939334 867.6413730098973 334.653959688261L867.6413730098973 334.653959688261Q865.5782075580992 336.88312695801983 863.8707602876457 340.1083051355431Q862.1633130171922 343.35719785848937 861.0724439277358 346.60609058143564Q859.9578602928564 349.8549833043819 859.7918584748957 352.0604360287176Q859.602142111512 354.28960329847644 860.8115839280832 354.28960329847644ZM950.4525656268922 372.7395196375435L950.4525656268922 372.7395196375435Q948.7451183564388 371.0320723670899 947.0376710859853 368.0440396437963Q945.3302238155318 365.0560069205027 944.3104983623441 361.1193923802904L944.3104983623441 361.1193923802904Q943.9547801809997 359.7439487457584 944.0496383626916 357.3724942034619Q944.1207819989605 354.97732511574236 943.9547801809997 353.9575996625549L943.9547801809997 353.9575996625549Q943.4567747271175 355.1433269337032 942.3421910922382 356.4239123865433Q941.2276074573588 357.7044978393834 940.2078820041712 358.55822147461015L940.2078820041712 358.55822147461015Q939.5201601869053 359.2459432918762 937.1249910991856 361.2142505619822Q934.7298220114662 363.1588432866654 932.3583674691697 364.36828510323664L932.3583674691697 364.36828510323664Q926.7143056585039 367.94918146210443 923.0385511179443 368.28118509802596Q919.3627965773846 368.6369032793705 916.1376183998614 364.53428692119746L916.1376183998614 364.53428692119746Q913.3867311307973 362.30511965143864 912.2958620413409 359.5779469277977Q911.1812784064616 356.85077420415666 912.2010038596491 352.0604360287176L912.2010038596491 352.0604360287176Q912.5330074955707 346.0843705821304 913.9084511301027 340.3691651351958Q915.2838947646346 334.653959688261 919.5525129407683 325.096997882806L919.5525129407683 325.096997882806Q923.1334092996362 318.10120698303126 925.0068583880504 314.75745607839315Q926.8803074764646 311.437419719178 927.40202747577 310.749697901912L927.40202747577 310.749697901912Q929.9631983814502 309.89597426668524 931.6706456519037 310.84455608360383Q933.3780929223572 311.76942335509943 933.7100965582788 314.16459244281896L933.7100965582788 314.16459244281896Q934.7298220114662 315.87203971327244 933.4492365586261 319.97465607144545Q932.168651105786 324.07727242961846 929.1094747462234 330.0533378762058L929.1094747462234 330.0533378762058Q926.7143056585039 335.8396869594093 924.7459983883978 341.6497505880359Q922.7776911182916 347.4598142166624 922.4456874823702 351.5624305748354Q922.1136838464486 355.6650469330084 924.4851383887451 356.51877056823514L924.4851383887451 356.51877056823514Q926.0265838412379 357.3724942034619 929.8683401997582 355.9970505689299Q933.7100965582788 354.62160693439785 938.5715783699866 349.16726148711587Q943.4567747271175 343.7129160398339 948.0573965391727 332.614508781886L948.0573965391727 332.614508781886Q949.4328401737048 329.19961424097903 950.0968474455477 326.54358515360695Q950.7845692628138 323.88755606623477 950.9505710807746 320.6623778887115L950.9505710807746 320.6623778887115Q950.6185674448529 318.5992124369135 951.2114310804271 316.98662334815185Q951.8042947160012 315.3503197139672 953.8674601677992 314.16459244281896L953.8674601677992 314.16459244281896Q954.5551819850652 313.3108688075922 955.7409092562136 312.5520033540573Q956.9266365273618 311.76942335509943 957.2823547087062 312.6231469903263L957.2823547087062 312.6231469903263L960.0095274323473 312.4571451723655Q960.6972492496132 312.29114335440477 960.9581092492659 313.21601062590037Q961.1952547034955 314.16459244281896 962.0489783387223 314.852314260085L962.0489783387223 314.852314260085Q963.9461419725594 316.3937597125778 963.0924183373328 321.51610152393823Q962.2386947021059 326.6384433352988 958.3020801618937 335.8396869594093L958.3020801618937 335.8396869594093Q955.0531874389475 342.85919240460703 953.9386038040682 346.4400887634748Q952.8477347146118 350.0209851223426 952.6580183512281 353.4358796632496L952.6580183512281 353.4358796632496Q952.6580183512281 356.51877056823514 953.8674601677992 359.2459432918762Q955.0531874389475 361.9731160155171 957.6143583446278 364.20228328527594L957.6143583446278 364.20228328527594Q959.487807433042 365.3880105564242 959.7486674326947 366.9294560089169Q960.0095274323473 368.47090146140965 959.8435256143865 370.51035236778466L959.8435256143865 370.51035236778466Q959.487807433042 372.05179782027744 957.8752183442804 372.97666509177304Q956.2626292555187 373.92524690869175 954.1994638037208 373.92524690869175Q952.1600128973457 373.92524690869175 950.4525656268922 372.7395196375435ZM976.0642746836949 367.0954578268777L976.0642746836949 367.0954578268777Q974.5228292312021 365.9097305557294 973.9299655956279 364.70028873915817Q973.3371019600538 363.5145614680099 973.8351074139362 360.09966692710293L973.8351074139362 360.09966692710293Q974.3568274132414 355.3093287516639 975.210551048468 351.63357421110425Q976.0642746836949 347.9815342159676 977.2500019548431 343.19119604052855L977.2500019548431 343.19119604052855Q977.6057201361876 341.15174513415354 979.2183092249493 336.1954051407538Q980.8308983137108 331.23906514735404 983.2260674014303 325.42900151872755Q985.6212364891499 319.61893789010105 988.0164055768694 314.4254524424716Q990.4115746645889 309.2082524494192 992.1190219350424 306.647081543739L992.1190219350424 306.647081543739Q993.4707510241515 305.6273560905514 995.4390582942575 305.79335790851223Q997.4073655643638 305.95935972647294 998.7590946534726 307.334803361005L998.7590946534726 307.334803361005Q1000.6562582873099 308.8762488134977 999.3756728344697 312.71800517201814Q998.0950873816296 316.5597615305385 994.1584728414175 324.7412797014615L994.1584728414175 324.7412797014615Q992.1190219350424 329.36561605893974 991.075581936432 331.6659269649674Q990.0558564832444 333.9662378709951 990.2218583012052 334.39309968860846Q990.4115746645889 334.81996150622183 991.763303753698 333.9662378709951L991.763303753698 333.9662378709951Q992.7830292068854 332.0927887825808 995.5339164759494 329.6264760585924Q998.2610891995904 327.13644878918103 1001.320265559153 324.7412797014615Q1004.4031564641384 322.369825159165 1007.1303291877794 320.4726615253278Q1009.8575019114205 318.5992124369135 1010.900941910031 318.10120698303126L1010.900941910031 318.10120698303126Q1012.2526709991399 317.2474833478045 1014.0549764512853 316.63090516680734Q1015.8335673580077 316.03804153123326 1016.5212891752738 315.70603789531174L1016.5212891752738 315.70603789531174Q1020.457903715486 313.83258880689743 1024.560520073659 314.3305942607798Q1028.639421886409 314.852314260085 1029.6828618850195 317.4134851657652L1029.6828618850195 317.4134851657652Q1029.8488637029802 318.7652142548743 1030.773730974476 319.45293607214023Q1031.7223127913944 320.14065788940627 1031.7223127913944 320.14065788940627L1031.7223127913944 320.14065788940627Q1032.4100346086605 320.14065788940627 1032.4811782449294 320.6623778887115Q1032.5760364266212 321.1603833425937 1032.5760364266212 321.1603833425937L1032.5760364266212 321.1603833425937Q1032.5760364266212 322.369825159165 1030.773730974476 322.60697061339465Q1028.9951400677535 322.8678306130473 1026.2679673441125 323.033832431008L1026.2679673441125 323.033832431008Q1024.0388000743537 323.2235487943917 1022.3313528039002 323.88755606623477Q1020.6239055334468 324.5752778835008 1018.2287364457272 325.59500333668825L1018.2287364457272 325.59500333668825Q1011.7546655452577 329.36561605893974 1005.8497437349394 332.9465124178075Q999.9685364700439 336.5274087766753 994.4904764773389 342.50347422326263L994.4904764773389 342.50347422326263Q993.3047492061906 343.8789178577946 992.1190219350424 345.7523669462089Q990.9095801184712 347.6258160346231 989.5578510293622 349.8549833043819L989.5578510293622 349.8549833043819Q988.7041273941354 350.70870693960865 987.8504037589087 353.6018814812104Q986.9966801236819 356.51877056823514 986.3801019426847 359.1510851101842Q985.7872383071107 361.8071141975564 985.7872383071107 362.30511965143864L985.7872383071107 362.30511965143864Q985.7872383071107 362.30511965143864 985.2892328532283 363.9414232856233Q984.7675128539231 365.5540123743849 983.5817855827748 367.0954578268777L983.5817855827748 367.0954578268777Q981.5186201309768 369.82263055051874 980.1668910418678 369.82263055051874Q978.7914474073359 369.82263055051874 976.0642746836949 367.0954578268777Z " fill="#161b21" transform="matrix(0.8473952563939394,0,0,0.8473952563939391,0,14.936463600548663)"/></g></svg>