<svg xmlns="http://www.w3.org/2000/svg" viewBox="0 0 500 500"><g id="freepik--background-complete--inject-18"><rect x="416.78" y="398.49" width="33.12" height="0.25" style="fill:#ebebeb"></rect><rect x="322.53" y="401.21" width="8.69" height="0.25" style="fill:#ebebeb"></rect><rect x="396.59" y="389.21" width="19.19" height="0.25" style="fill:#ebebeb"></rect><rect x="52.46" y="390.89" width="43.19" height="0.25" style="fill:#ebebeb"></rect><rect x="104.56" y="390.89" width="6.33" height="0.25" style="fill:#ebebeb"></rect><rect x="131.47" y="395.11" width="93.68" height="0.25" style="fill:#ebebeb"></rect><path d="M237,337.8H43.91a5.71,5.71,0,0,1-5.7-5.71V60.66A5.71,5.71,0,0,1,43.91,55H237a5.71,5.71,0,0,1,5.71,5.71V332.09A5.71,5.71,0,0,1,237,337.8ZM43.91,55.2a5.46,5.46,0,0,0-5.45,5.46V332.09a5.46,5.46,0,0,0,5.45,5.46H237a5.47,5.47,0,0,0,5.46-5.46V60.66A5.47,5.47,0,0,0,237,55.2Z" style="fill:#ebebeb"></path><path d="M453.31,337.8H260.21a5.72,5.72,0,0,1-5.71-5.71V60.66A5.72,5.72,0,0,1,260.21,55h193.1A5.71,5.71,0,0,1,459,60.66V332.09A5.71,5.71,0,0,1,453.31,337.8ZM260.21,55.2a5.47,5.47,0,0,0-5.46,5.46V332.09a5.47,5.47,0,0,0,5.46,5.46h193.1a5.47,5.47,0,0,0,5.46-5.46V60.66a5.47,5.47,0,0,0-5.46-5.46Z" style="fill:#ebebeb"></path><rect y="382.4" width="500" height="0.25" style="fill:#ebebeb"></rect><polygon points="447.4 287.7 443.01 383.36 438.07 383.36 438.19 380.02 376.4 380.02 376.53 383.36 371.57 383.36 367.4 287.7 447.4 287.7" style="fill:#f0f0f0"></polygon><polygon points="438.38 374.92 376.21 374.92 373.14 293.49 441.43 293.49 438.38 374.92" style="fill:#fff"></polygon><polygon points="438.63 316.99 376.57 316.99 375.89 297.42 439.31 297.42 438.63 316.99" style="fill:#ebebeb"></polygon><polygon points="436.44 372.49 378.36 372.49 376.5 319.43 438.3 319.43 436.44 372.49" style="fill:#ebebeb"></polygon><path d="M410.3,306.26a2.83,2.83,0,1,1-2.83-2.83A2.83,2.83,0,0,1,410.3,306.26Z" style="fill:#fff"></path><path d="M383.28,349.23h0a2.05,2.05,0,0,1-2-2.05V333.05a2,2,0,0,1,2-2.05h0a2,2,0,0,1,2.05,2.05v14.13A2,2,0,0,1,383.28,349.23Z" style="fill:#fff"></path><path d="M400.65,278.18c0,3.73.58,6.15,1.57,7.7a4.09,4.09,0,0,0,3.46,1.82h5.41a4.08,4.08,0,0,0,3.45-1.82c1-1.55,1.58-4,1.58-7.7,0-5.42-2.37-9.75-3.14-13.22-.27-1.24.65-5.06.65-5.06h-10.5s.93,3.82.65,5.06C403,268.43,400.65,272.76,400.65,278.18Z" style="fill:#f0f0f0"></path><path d="M411.89,233.75a5.59,5.59,0,0,0-2.8,1.81c-1,1.37.75,4.6.75,4.6a4.35,4.35,0,0,0,3.77,1.21l2.09-.51s-2.21-6.34-3.8-6.7Z" style="fill:#ebebeb"></path><path d="M420.14,235.26c-.28,2.75-2.61,5.85-5.07,5.61s-4.11-3.75-3.84-6.51,2.28-2.65,4.74-2.4S420.41,232.51,420.14,235.26Z" style="fill:#ebebeb"></path><path d="M413.2,233.12s1.57,1.82,5.54,1.68C418.74,234.8,412,237.68,413.2,233.12Z" style="fill:#ebebeb"></path><path d="M414.93,232.89s2.21,0,2.07.93c0,0,1.83.24,1.72-.56S414.93,232.89,414.93,232.89Z" style="fill:#ebebeb"></path><path d="M413.2,233.12s1.57,1.82,5.54,1.68C418.74,234.8,412,237.68,413.2,233.12Z" style="fill:#e0e0e0"></path><path d="M414.93,232.89s2.21,0,2.07.93c0,0,1.83.24,1.72-.56S414.93,232.89,414.93,232.89Z" style="fill:#e0e0e0"></path><path d="M410.85,241a4,4,0,0,0,3.47,2.43,5.41,5.41,0,0,0,4-1.6,8.27,8.27,0,0,0,2.12-3.89c.09-.37.3-1.31-.17-1.55s-.84.36-1.11.62a14.88,14.88,0,0,1-2.48,2,13.76,13.76,0,0,1-2.82,1.34C413.63,240.4,411,241.2,410.85,241Z" style="fill:#ebebeb"></path><path d="M422.25,237.51a3.57,3.57,0,0,1-1.06,3.3,6.31,6.31,0,0,1-2.08,1.14c-.52.19-1.17.34-1.57,0s-.25-1.13,0-1.68c.34-.85.71-1.7,1.09-2.53a9,9,0,0,1,1.2-2.4c.5-.5,1-.05,1.52.48A3.49,3.49,0,0,1,422.25,237.51Z" style="fill:#ebebeb"></path><path d="M411.75,239.57a2.54,2.54,0,0,1-1.86-1.95c-.13-.69.18-2.33,1.06-2.38A11.67,11.67,0,0,0,411.75,239.57Z" style="fill:#e0e0e0"></path><path d="M418.43,240.05a2.83,2.83,0,0,0,2.23-1.49c.24-.46.52-3-.41-2.07-.3.3-.46,1.39-.67,1.81A9,9,0,0,1,418.43,240.05Z" style="fill:#e0e0e0"></path><path d="M414.76,240.94a2.08,2.08,0,0,0,2.47.54c-.18.46-1.77.57-2.26.62-1.29.13-1.82-.53-2.91-1.24C412.06,240.86,413.88,241.5,414.76,240.94Z" style="fill:#e0e0e0"></path><polygon points="406.93 284.73 409.96 254.12 413.98 243.26 414.67 243.52 410.68 254.33 407.51 285.56 406.93 284.73" style="fill:#e6e6e6"></polygon><path d="M410.65,254.06l-.66.33a21.37,21.37,0,0,1-1.16-3.2,26,26,0,0,0-2.56-6.21l.64-.39a27.48,27.48,0,0,1,2.63,6.38A20.27,20.27,0,0,0,410.65,254.06Z" style="fill:#e6e6e6"></path><path d="M412.28,250a4.37,4.37,0,0,0,2.76-1.26,8.65,8.65,0,0,0,1.69-3.06c-1.35.14-2.6-.74-4-.83a3.52,3.52,0,0,0-2.88,1.19c-.91,1.06-1.45,2.35-.94,3A4.57,4.57,0,0,0,412.28,250Z" style="fill:#f0f0f0"></path><path d="M401.45,246.73a5.15,5.15,0,0,1,4.33-.7,3.89,3.89,0,0,1,2.36,2.64,2.43,2.43,0,0,1-2.32.91,7.31,7.31,0,0,1-2.44-.92,7,7,0,0,0-2.44-.92Z" style="fill:#f0f0f0"></path><path d="M408.13,247.31c-1.76.2-3.33.55-4.93-1.45-1.07-1.34-.73-3.36-.65-5a36.28,36.28,0,0,1,5.75,2.43,2.79,2.79,0,0,1,1.54,1.88,1.61,1.61,0,0,1-1.27,1.82C408.54,247,408.13,247.31,408.13,247.31Z" style="fill:#f0f0f0"></path><path d="M403.1,271.12A14.51,14.51,0,0,0,402,277.4c.05.4.17.86.46.93s.54-.26.64-.63a4.76,4.76,0,0,0,.07-1.14c0-3.28,1.77-6,2.11-9.25.1-.91-.14-3.78-.67-1.67C404.09,267.52,403.75,269.28,403.1,271.12Z" style="fill:#fff"></path><rect x="170.68" y="119.21" width="78.78" height="127.71" style="fill:#e0e0e0"></rect><rect x="173.57" y="119.21" width="78.78" height="127.71" style="fill:#f0f0f0"></rect><rect x="177.41" y="124.4" width="70.96" height="62.33" style="fill:#fff"></rect><rect x="245.88" y="124.41" width="2.5" height="115.04" style="fill:#e0e0e0"></rect><rect x="210.28" y="153.64" width="2.78" height="68.96" transform="translate(23.54 399.79) rotate(-90)" style="fill:#e0e0e0"></rect><rect x="176.07" y="182.07" width="72.3" height="4.67" style="fill:#f0f0f0"></rect><rect x="246.34" y="119.21" width="78.78" height="127.71" style="fill:#e0e0e0"></rect><rect x="249.24" y="119.21" width="78.78" height="127.71" style="fill:#f0f0f0"></rect><rect x="253.08" y="124.4" width="70.96" height="62.33" style="fill:#fff"></rect><rect x="321.54" y="124.41" width="2.5" height="115.04" style="fill:#e0e0e0"></rect><rect x="285.94" y="153.64" width="2.78" height="68.96" transform="translate(99.21 475.46) rotate(-90)" style="fill:#e0e0e0"></rect><rect x="251.74" y="182.07" width="72.3" height="4.67" style="fill:#f0f0f0"></rect><path d="M82.36,340.86s2.91-32.21-9.89-47.91,10-1.41,14,14.25c0,0,.76-29-12-47.75s9-4.72,12.8,15.76c0,0,.72-25.86-5.66-39.56s3.14-5.55,7.34,3S91.08,270,91.08,270s4.47-42.1,13-39.82-9.15,31.65-10.56,46c0,0,7.72-20,15.41-17S98.18,266.4,92.5,295.51L90.83,309s7-19.66,13.36-14.49-15.55,18.06-18,46.87Z" style="fill:#ebebeb"></path><path d="M83.74,342.53S81,302.7,97.23,283.72s-12.3-2.05-17.7,17.15c0,0-.16-35.78,16.11-58.54s-11-6.11-16.21,19c0,0-.2-31.92,8-48.63s-3.72-6.95-9.14,3.49-3.45,38.55-3.45,38.55S70.49,202.68,60,205.22s10.45,39.34,11.8,57.07c0,0-9-24.92-18.56-21.42s13,9.28,19.26,45.38L74.14,303S66.05,278.52,58,284.68s18.7,22.78,21,58.42Z" style="fill:#f0f0f0"></path><path d="M108.94,362.39c0,10.93-11.85,19.8-26.47,19.8S56,373.32,56,362.39c0-4.93,2.4-9.42,6.38-12.88l-3.13-13.25h46.45l-3.13,13.25C106.54,353,108.94,357.46,108.94,362.39Z" style="fill:#ebebeb"></path></g><g id="freepik--Shadow--inject-18"><ellipse id="freepik--path--inject-18" cx="250" cy="415.69" rx="193.89" ry="11.32" style="fill:#f5f5f5"></ellipse></g><g id="freepik--Plants--inject-18"><path d="M136.93,330.42a127.54,127.54,0,0,1,13.25,34.2c9.23,41.51,9.23,49.92,9.23,49.92l7.72.25S151.87,339.15,139.49,328,136.93,330.42,136.93,330.42Z" style="fill:#407BFF"></path><path d="M136.93,330.42a127.54,127.54,0,0,1,13.25,34.2c9.23,41.51,9.23,49.92,9.23,49.92l7.72.25S151.87,339.15,139.49,328,136.93,330.42,136.93,330.42Z" style="opacity:0.4"></path><path d="M134.06,321.72c2.79-2.2,3.25-1.87,6.19-2.71-2.39-1.81-4.83-4.76-10.2-5.5a10.3,10.3,0,0,0-10.43,6.75,1.17,1.17,0,0,1-.72.67h0a1.23,1.23,0,0,1-1.67-1,9.75,9.75,0,0,1,4.88-8.5c-4-.83-9-1.32-12.82.19-4.17,1.65-7.79,8.83-6.93,13.09a.76.76,0,0,1-.52.88h0a.9.9,0,0,1-1.17-.49,11.28,11.28,0,0,1-.94-5.29c.23-2.05,1.09-4.15,3.11-5.09-4.73-1.7-13.8,4.66-13.29,4.81-1.29,3.27-.1,7.52.59,9.48a1.47,1.47,0,0,1-.8,1.81l0,0a1.76,1.76,0,0,1-2.41-.82c-.81-2-1.91-5.2-1.48-7.22-2,.16-3.42,2.39-4.43,4-3.21,5.14-1.39,11.09-.47,16.6a28.7,28.7,0,0,0,12.9,8.06,16.55,16.55,0,0,0,11.22-.84l.09,0c-2.67-2.24-5.54-4.82-8.25-7.13a1.17,1.17,0,0,1-.14-1.68l0,0a1.46,1.46,0,0,1,1.9-.22c3.83,2.63,6.46,5.18,10.43,7.82,3.47-.62,11.49-5.41,10.71-5.59-3.48-2.12-9.85-5-12.39-8.18a1,1,0,0,1,.31-1.45h0a1.22,1.22,0,0,1,1.32.09A47.88,47.88,0,0,0,122.42,342c4.94-1.91,8.61-3.47,10.57-5.82l-10.28-6.75c-1-.67-.14-2.15,1-1.71l.06,0c4.75,1.89,9,6.12,14.07,5.71,0,0,7.39-1.62,7.38-4.88C140.22,328.43,132.81,322.7,134.06,321.72Z" style="fill:#407BFF"></path><path d="M134.06,321.72c2.79-2.2,3.25-1.87,6.19-2.71-2.39-1.81-4.83-4.76-10.2-5.5a10.3,10.3,0,0,0-10.43,6.75,1.17,1.17,0,0,1-.72.67h0a1.23,1.23,0,0,1-1.67-1,9.75,9.75,0,0,1,4.88-8.5c-4-.83-9-1.32-12.82.19-4.17,1.65-7.79,8.83-6.93,13.09a.76.76,0,0,1-.52.88h0a.9.9,0,0,1-1.17-.49,11.28,11.28,0,0,1-.94-5.29c.23-2.05,1.09-4.15,3.11-5.09-4.73-1.7-13.8,4.66-13.29,4.81-1.29,3.27-.1,7.52.59,9.48a1.47,1.47,0,0,1-.8,1.81l0,0a1.76,1.76,0,0,1-2.41-.82c-.81-2-1.91-5.2-1.48-7.22-2,.16-3.42,2.39-4.43,4-3.21,5.14-1.39,11.09-.47,16.6a28.7,28.7,0,0,0,12.9,8.06,16.55,16.55,0,0,0,11.22-.84l.09,0c-2.67-2.24-5.54-4.82-8.25-7.13a1.17,1.17,0,0,1-.14-1.68l0,0a1.46,1.46,0,0,1,1.9-.22c3.83,2.63,6.46,5.18,10.43,7.82,3.47-.62,11.49-5.41,10.71-5.59-3.48-2.12-9.85-5-12.39-8.18a1,1,0,0,1,.31-1.45h0a1.22,1.22,0,0,1,1.32.09A47.88,47.88,0,0,0,122.42,342c4.94-1.91,8.61-3.47,10.57-5.82l-10.28-6.75c-1-.67-.14-2.15,1-1.71l.06,0c4.75,1.89,9,6.12,14.07,5.71,0,0,7.39-1.62,7.38-4.88C140.22,328.43,132.81,322.7,134.06,321.72Z" style="fill:#fff;opacity:0.2"></path><path d="M182.53,414.84h-17.9c-4-5.87-7.77-13.5-8.69-22.16-2.15-20,11.71-37.91,11.71-37.91s12.45,10.43,17.56,25.77a41.73,41.73,0,0,1,1.95,8.77C188.19,398.88,185.56,408,182.53,414.84Z" style="fill:#407BFF"></path><path d="M182.53,414.84h-17.9c-4-5.87-7.77-13.5-8.69-22.16-2.15-20,11.71-37.91,11.71-37.91s12.45,10.43,17.56,25.77a41.73,41.73,0,0,1,1.95,8.77C188.19,398.88,185.56,408,182.53,414.84Z" style="opacity:0.30000000000000004;isolation:isolate"></path><path d="M205.12,403.93a41.41,41.41,0,0,1-9.4,10.91H173.43c-.26-7.54.65-17.71,5.8-26.55a38.88,38.88,0,0,1,6-7.75c10.32-10.56,24.38-14.32,24.38-14.32S214.75,387.42,205.12,403.93Z" style="fill:#407BFF"></path><g style="opacity:0.4"><path d="M205.12,403.93a41.41,41.41,0,0,1-9.4,10.91H173.43c-.26-7.54.65-17.71,5.8-26.55a38.88,38.88,0,0,1,6-7.75c10.32-10.56,24.38-14.32,24.38-14.32S214.75,387.42,205.12,403.93Z" style="fill:#fff"></path></g><path d="M90.79,393.25c-2.79,4-3.49,3.65-7,5.76,3.69,1.79,7.83,5.16,14.92,4.51,6.35-1,10.26-6.43,11-12.79a1.6,1.6,0,0,1,.68-1.16l0,0a1.62,1.62,0,0,1,2.47.88,14.4,14.4,0,0,1-3.25,13.48c5.45-.11,12-1,16.28-4.32,4.73-3.63,6.84-14.86,4.26-20.58a1.14,1.14,0,0,1,.36-1.41l0,0a1.15,1.15,0,0,1,1.65.32,17.84,17.84,0,0,1,3.05,7.14c.42,2.95.06,6.18-2.19,8.13,6.61.91,15.95-10.9,15.25-10.94.51-5-2.48-10.61-4.05-13.15a2.21,2.21,0,0,1,.38-2.79l0,0a2.24,2.24,0,0,1,3.36.39c1.72,2.52,4.25,6.7,4.4,9.67,2.54-.86,3.53-4.43,4.25-7,2.31-8.24-2.1-16-5.18-23.47a37.51,37.51,0,0,0-19.25-7.25,19.83,19.83,0,0,0-14,4.72l-.09.08c4.17,2.31,8.74,5,13,7.42a1.81,1.81,0,0,1,.76,2.31v0a1.8,1.8,0,0,1-2.35.91c-5.79-2.49-10-5.23-16-7.7-4.21,2-12.76,11.24-11.71,11.24,5.19,1.89,14.31,3.92,18.65,7.59a1.47,1.47,0,0,1,.11,2.13h0a1.48,1.48,0,0,1-1.71.29,61.7,61.7,0,0,0-20.31-6.51c-5.63,4.25-9.77,7.6-11.45,11.52,4.2,1.71,10.58,4.27,15.46,6.24a1.42,1.42,0,0,1-.71,2.72h-.08c-6.71-1.16-13.63-5.75-19.92-3.58,0,0-8.86,4.62-7.7,9.2C80.59,385.77,92,391.48,90.79,393.25Z" style="fill:#407BFF"></path><path d="M143.56,347.52s15,21.93,19.09,42.63,4.64,24.72,4.64,24.72l9.13.08S160,356.9,146.13,344.5,143.56,347.52,143.56,347.52Z" style="fill:#407BFF"></path><path d="M143.56,347.52s15,21.93,19.09,42.63,4.64,24.72,4.64,24.72l9.13.08S160,356.9,146.13,344.5,143.56,347.52,143.56,347.52Z" style="opacity:0.1"></path><path d="M90.79,393.25c-2.79,4-3.49,3.65-7,5.76,3.69,1.79,7.83,5.16,14.92,4.51,6.35-1,10.26-6.43,11-12.79a1.6,1.6,0,0,1,.68-1.16l0,0a1.62,1.62,0,0,1,2.47.88,14.4,14.4,0,0,1-3.25,13.48c5.45-.11,12-1,16.28-4.32,4.73-3.63,6.84-14.86,4.26-20.58a1.14,1.14,0,0,1,.36-1.41l0,0a1.15,1.15,0,0,1,1.65.32,17.84,17.84,0,0,1,3.05,7.14c.42,2.95.06,6.18-2.19,8.13,6.61.91,15.95-10.9,15.25-10.94.51-5-2.48-10.61-4.05-13.15a2.21,2.21,0,0,1,.38-2.79l0,0a2.24,2.24,0,0,1,3.36.39c1.72,2.52,4.25,6.7,4.4,9.67,2.54-.86,3.53-4.43,4.25-7,2.31-8.24-2.1-16-5.18-23.47a37.51,37.51,0,0,0-19.25-7.25,19.83,19.83,0,0,0-14,4.72l-.09.08c4.17,2.31,8.74,5,13,7.42a1.81,1.81,0,0,1,.76,2.31v0a1.8,1.8,0,0,1-2.35.91c-5.79-2.49-10-5.23-16-7.7-4.21,2-12.76,11.24-11.71,11.24,5.19,1.89,14.31,3.92,18.65,7.59a1.47,1.47,0,0,1,.11,2.13h0a1.48,1.48,0,0,1-1.71.29,61.7,61.7,0,0,0-20.31-6.51c-5.63,4.25-9.77,7.6-11.45,11.52,4.2,1.71,10.58,4.27,15.46,6.24a1.42,1.42,0,0,1-.71,2.72h-.08c-6.71-1.16-13.63-5.75-19.92-3.58,0,0-8.86,4.62-7.7,9.2C80.59,385.77,92,391.48,90.79,393.25Z" style="fill:#fff;opacity:0.6000000000000001"></path><path d="M340,367.82c.06.2-1.07.85,1.93,1.71,7.4,2.14,20.73,4.87,27.35-.71,9.45-8-7.1-11.07-4.2-16s19.37,3.71,24.67-3.09-7.84-8.43-6.28-12.21,13.69,4.58,20.09-2.43-6.37-5.55-3.65-8.44,21-13.22,15.73-17.8-22.77,6.57-27.76,7-2.54-14.13-9.76-10.82-8.54,25.85-16.25,26.81c-5.74.71-1-6.33-7.53-7.62C345.38,322.45,335.08,352,340,367.82Z" style="fill:#407BFF"></path><g style="opacity:0.30000000000000004"><path d="M340,367.82c.06.2-1.07.85,1.93,1.71,7.4,2.14,20.73,4.87,27.35-.71,9.45-8-7.1-11.07-4.2-16s19.37,3.71,24.67-3.09-7.84-8.43-6.28-12.21,13.69,4.58,20.09-2.43-6.37-5.55-3.65-8.44,21-13.22,15.73-17.8-22.77,6.57-27.76,7-2.54-14.13-9.76-10.82-8.54,25.85-16.25,26.81c-5.74.71-1-6.33-7.53-7.62C345.38,322.45,335.08,352,340,367.82Z" style="fill:#fff"></path></g><path d="M327.88,392.88h0a.51.51,0,0,1-.3-.64c18.42-48.67,52.31-62,52.65-62.12a.5.5,0,0,1,.64.29.5.5,0,0,1-.29.65c-.34.12-33.82,13.31-52.06,61.53A.51.51,0,0,1,327.88,392.88Z" style="fill:#407BFF"></path><path d="M371.91,335.47a.52.52,0,0,1-.36-.44.5.5,0,0,1,.46-.54c.2,0,4.84-.32,11.52,2.9a.5.5,0,0,1,.23.67.49.49,0,0,1-.66.23c-6.43-3.09-11-2.8-11-2.8A.55.55,0,0,1,371.91,335.47Z" style="fill:#407BFF"></path><path d="M365.08,340.26a.52.52,0,0,1-.35-.6c3.57-15.21,15.25-24.91,15.37-25a.5.5,0,0,1,.7.07.5.5,0,0,1-.07.71c-.11.09-11.54,9.59-15,24.46a.5.5,0,0,1-.6.37Z" style="fill:#407BFF"></path><path d="M353.33,351a.49.49,0,0,1-.3-.23.5.5,0,0,1,.19-.68c.08-.05,8.06-4.47,15.82.67a.49.49,0,0,1,.14.69.5.5,0,0,1-.69.14c-7.26-4.8-14.7-.68-14.77-.63A.49.49,0,0,1,353.33,351Z" style="fill:#407BFF"></path><path d="M346.64,358.85a.51.51,0,0,1-.36-.4c0-.35-1.37-8.76,3-19.2a.5.5,0,0,1,.92.39,37.41,37.41,0,0,0-3,18.65.49.49,0,0,1-.41.57A.54.54,0,0,1,346.64,358.85Z" style="fill:#407BFF"></path><path d="M323.69,410.85a.5.5,0,0,1-.35-.58L326,396.82c8.95-44.63-14-82.1-14.23-82.47a.5.5,0,1,1,.85-.53c.23.37,23.39,38.16,14.35,83.21l-2.62,13.44a.5.5,0,0,1-.59.39Z" style="fill:#407BFF"></path><path d="M320.17,334a.11.11,0,0,1-.07,0,.51.51,0,0,1-.13-.09l-.14-.1a32.49,32.49,0,0,0-11.89-5.47.48.48,0,0,1-.38-.59.5.5,0,0,1,.59-.38A33.43,33.43,0,0,1,320.42,333l.15.1.07.06a.5.5,0,0,1,.12.6A.49.49,0,0,1,320.17,334Z" style="fill:#407BFF"></path><path d="M323.07,340.74h0a.49.49,0,0,1-.31-.63c4.37-12.75.24-25.14.2-25.26a.49.49,0,0,1,.31-.63.51.51,0,0,1,.64.31c0,.12,4.28,12.82-.2,25.9A.49.49,0,0,1,323.07,340.74Z" style="fill:#407BFF"></path><path d="M325.64,349.38a.49.49,0,0,1-.29-.22,13.57,13.57,0,0,0-11.44-6,.5.5,0,0,1-.51-.49.49.49,0,0,1,.49-.51,14.35,14.35,0,0,1,12.32,6.45.51.51,0,0,1-.17.69A.52.52,0,0,1,325.64,349.38Z" style="fill:#407BFF"></path><path d="M328.21,363.2a.44.44,0,0,1-.19-.1.51.51,0,0,1,0-.71A33,33,0,0,0,334.49,347a.5.5,0,0,1,.58-.41.49.49,0,0,1,.41.57,33.38,33.38,0,0,1-6.76,15.85A.5.5,0,0,1,328.21,363.2Z" style="fill:#407BFF"></path><path d="M329.22,373.46c-6.18-1.37-15.3-9.62-18.08-16.17s8.1-.31,8-5-15.44-5-16.58-11.94,9-3,9.34-6.34-10.64-5.31-12.49-12.89,6.77-1.5,5.95-4.65-9.94-17.8-4.34-19,13.84,13.71,17.27,16,6.34-6,10.25-.74-4,22,1.17,25.74c3.86,2.77,4-5.76,8.44-2.53C345.88,341.53,331.72,374,329.22,373.46Z" style="fill:#407BFF"></path><g style="opacity:0.2"><path d="M329.22,373.46c-6.18-1.37-15.3-9.62-18.08-16.17s8.1-.31,8-5-15.44-5-16.58-11.94,9-3,9.34-6.34-10.64-5.31-12.49-12.89,6.77-1.5,5.95-4.65-9.94-17.8-4.34-19,13.84,13.71,17.27,16,6.34-6,10.25-.74-4,22,1.17,25.74c3.86,2.77,4-5.76,8.44-2.53C345.88,341.53,331.72,374,329.22,373.46Z" style="fill:#fff"></path></g><path d="M327.35,394l-.06,0a.5.5,0,0,1-.26-.66c0-.08.36-1,.9-2.6.83-2.39,2.49-7.4,4.38-14.21a2.65,2.65,0,0,0,.08-.29c2.1-7.61,3.85-15.19,5.2-22.54,1.27-6.86,2.19-13.6,2.76-20a160.44,160.44,0,0,0,.6-16.67v0h0c0-.82-.05-1.65-.08-2.47s-.06-1.35-.1-2c-.09-1.76-.16-3.43-.19-5-.08-3.39,0-6.74.11-10,.08-1.93.21-3.83.37-5.62a120,120,0,0,1,3.44-20.23c.68-2.61,1.46-5.18,2.33-7.65a77.31,77.31,0,0,1,3.1-7.61c.09-.17.17-.34.24-.49l.11-.24a.53.53,0,0,1,.23-.28.49.49,0,0,1,.68.18.53.53,0,0,1,0,.52h0l-.11.23-.25.52a77.55,77.55,0,0,0-3.06,7.5c-.85,2.44-1.63,5-2.3,7.57a119.06,119.06,0,0,0-3.42,20.07c-.16,1.78-.28,3.65-.36,5.58-.15,3.2-.19,6.53-.11,9.9,0,1.53.1,3.19.19,4.93,0,.68.07,1.36.1,2s.06,1.65.08,2.47v0h0a160.25,160.25,0,0,1-.61,16.79c-.56,6.48-1.5,13.25-2.77,20.14-1.36,7.38-3.11,15-5.21,22.61a2.56,2.56,0,0,1-.1.34c-1.88,6.8-3.55,11.84-4.38,14.23-.55,1.63-.9,2.59-.93,2.68A.51.51,0,0,1,327.35,394Z" style="fill:#407BFF"></path><path d="M350.69,255.92h0l0,0a15.77,15.77,0,0,1,3.24-1.26,14.85,14.85,0,0,1,3.76-.47" style="fill:#407BFF"></path><path d="M350.55,256.4a.76.76,0,0,1-.18-.09.5.5,0,0,1-.07-.7.44.44,0,0,1,.15-.12l.06,0h0a15.45,15.45,0,0,1,3.34-1.3,15.14,15.14,0,0,1,3.89-.49.5.5,0,0,1,.5.51.5.5,0,0,1-.51.49,14.43,14.43,0,0,0-3.63.45,15.44,15.44,0,0,0-3.12,1.22h0A.49.49,0,0,1,350.55,256.4Z" style="fill:#407BFF"></path><path d="M347.16,264.61a.45.45,0,0,1-.27-.2l-2.47-3.62a.5.5,0,0,1,.83-.56l2.46,3.62a.5.5,0,0,1-.55.76Z" style="fill:#407BFF"></path><path d="M340.93,308a.55.55,0,0,1-.34-.64h0a12.39,12.39,0,0,1,1.41-2.43,13.62,13.62,0,0,1,5.29-4.37.5.5,0,0,1,.42.91,12.43,12.43,0,0,0-2.36,1.42,12.18,12.18,0,0,0-2.54,2.63,12,12,0,0,0-1.28,2.16.46.46,0,0,1-.59.33Z" style="fill:#407BFF"></path><path d="M341.31,317.39A.5.5,0,0,1,341,317a8.44,8.44,0,0,0-3.54-5.71.5.5,0,0,1,.56-.82,9.44,9.44,0,0,1,4,6.4.49.49,0,0,1-.64.54Z" style="fill:#407BFF"></path><path d="M336.29,362.26c-.75-1.52-.38-6.56-.18-9.26.05-.65.09-1.2.11-1.6" style="fill:#407BFF"></path><path d="M336.15,362.74a.45.45,0,0,1-.31-.26c-.74-1.52-.51-5.71-.22-9.51,0-.65.08-1.2.1-1.59a.51.51,0,0,1,.53-.48.5.5,0,0,1,.47.53c0,.4-.06,1-.11,1.61-.18,2.47-.56,7.6.13,9a.5.5,0,0,1-.23.67A.46.46,0,0,1,336.15,362.74Z" style="fill:#407BFF"></path><path d="M341,298a.5.5,0,0,1-.35-.58c.17-.8,4.29-19.67,16.64-24.13a.5.5,0,0,1,.34.94c-11.83,4.27-16,23.2-16,23.4a.49.49,0,0,1-.59.38Z" style="fill:#407BFF"></path><path d="M330.27,338.53c-2.47,4.15,5.13,15,5.13,15S348.56,355,351,350.88s1-12.26-4.73-15.67S332.74,334.38,330.27,338.53Z" style="fill:#407BFF"></path><path d="M332.7,281.58c.07,5.05,8.4,10.64,8.4,10.64s8.15-5.83,8.08-10.89-3.86-11.51-8.42-11.45S332.62,276.53,332.7,281.58Z" style="fill:#407BFF"></path><path d="M353.11,302.64a12.59,12.59,0,0,1-4.46,1.27,4.26,4.26,0,0,1-3.94-2c-.89-1.71,0-3.82,1.16-5.34,2.35-3,9.39-7.38,13.34-4.68C364.9,295.78,356.41,301.24,353.11,302.64Z" style="fill:#407BFF"></path><path d="M338.19,308.15c.58,1.22,1.14,2.72.39,3.84a2.71,2.71,0,0,1-3.23.72,8,8,0,0,1-2.74-2.27c-1.84-2.07-5.6-6.4-2-8.71S337,305.58,338.19,308.15Z" style="fill:#407BFF"></path><path d="M367.09,269.69a2.35,2.35,0,0,1,1.67,2.18c-.08,1.14-1.22,1.88-2.27,2.35-2.61,1.16-10.32,4.14-10.73-.63C355.37,269.08,364.25,268.66,367.09,269.69Z" style="fill:#407BFF"></path><path d="M358.42,252.23c1.33.46,2.81.3,4.16.71s2.59,1.89,2,3.15-2.22,1.21-3.5,1a25.49,25.49,0,0,1-6.33-2,2,2,0,0,1-1.15-1c-.36-1,.78-1.82,1.79-1.89s2.05.3,3,0Z" style="fill:#407BFF"></path><path d="M342.83,258.39c-1.38-.29-2.56-1.19-3.93-1.53s-3.2.28-3.31,1.69,1.28,2.17,2.49,2.64a25.76,25.76,0,0,0,6.47,1.54,2,2,0,0,0,1.48-.25c.8-.62.27-2-.57-2.54s-1.9-.8-2.59-1.54Z" style="fill:#407BFF"></path><path d="M349.8,257.61h0a.5.5,0,0,1-.3-.64c1-2.58,1.4-5.19.94-5.47a.5.5,0,0,1-.15-.69.49.49,0,0,1,.69-.16c1.4.89.09,5-.54,6.66A.49.49,0,0,1,349.8,257.61Z" style="fill:#407BFF"></path><path d="M352.47,251.7c-.38-2.06-.8-4.22-2.16-5.81s-4-2.31-5.56-1c-1.78,1.51-1.11,4.62.7,6.1s4.29,1.76,6.61,2l.3-1Z" style="fill:#407BFF"></path><path d="M174.05,392.47H174a.5.5,0,0,1-.53-.46c-4-51.88,21-78.34,21.23-78.6a.5.5,0,0,1,.72.69c-.25.26-24.95,26.43-21,77.83A.5.5,0,0,1,174.05,392.47Z" style="fill:#407BFF"></path><path d="M189.49,321.79a.5.5,0,0,1-.33-.93c.17-.1,4.24-2.35,11.66-2.27a.5.5,0,0,1,0,1c-7.13-.07-11.12,2.12-11.16,2.14A.52.52,0,0,1,189.49,321.79Z" style="fill:#407BFF"></path><path d="M185.34,329a.5.5,0,0,1-.57-.39c-3.24-15.28,3.21-29,3.27-29.17a.5.5,0,0,1,.67-.24.51.51,0,0,1,.24.67c-.07.13-6.37,13.59-3.2,28.53a.51.51,0,0,1-.39.59Z" style="fill:#407BFF"></path><path d="M179.26,343.74a.48.48,0,0,1-.36-.09.49.49,0,0,1-.12-.69c.05-.08,5.39-7.47,14.6-6.12a.5.5,0,0,1,.43.56.51.51,0,0,1-.57.43c-8.62-1.26-13.6,5.63-13.65,5.7A.48.48,0,0,1,179.26,343.74Z" style="fill:#407BFF"></path><path d="M176.55,353.7a.5.5,0,0,1-.49-.21c-.2-.3-5-7.35-5.41-18.67a.49.49,0,0,1,.48-.52.5.5,0,0,1,.52.48,37.3,37.3,0,0,0,5.23,18.14.49.49,0,0,1-.13.69A.52.52,0,0,1,176.55,353.7Z" style="fill:#407BFF"></path><path d="M179,415.1a.49.49,0,0,1-.56-.38L174,396.86c-10.87-44.21-47.57-68.37-47.94-68.61a.5.5,0,0,1,.54-.84C127,327.66,164,352,175,396.62l4.44,17.88a.51.51,0,0,1-.37.6Z" style="fill:#407BFF"></path><path d="M142,342.46H142l-.15,0-.18,0a32.34,32.34,0,0,0-13.08.1.5.5,0,1,1-.22-1,33.32,33.32,0,0,1,13.5-.11l.17,0,.1,0a.51.51,0,0,1,.36.49A.5.5,0,0,1,142,342.46Z" style="fill:#407BFF"></path><path d="M147.52,347.33h0a.5.5,0,0,1-.55-.44c-1.47-13.4-10.47-22.85-10.56-22.95a.49.49,0,0,1,0-.7.5.5,0,0,1,.71,0c.09.09,9.32,9.78,10.83,23.53A.49.49,0,0,1,147.52,347.33Z" style="fill:#407BFF"></path><path d="M153.52,354.05a.47.47,0,0,1-.36-.08,13.58,13.58,0,0,0-12.89-.53.5.5,0,0,1-.45-.9,14.38,14.38,0,0,1,13.9.6.5.5,0,0,1,.13.7A.48.48,0,0,1,153.52,354.05Z" style="fill:#407BFF"></path><path d="M161.72,365.47a.55.55,0,0,1-.22,0,.49.49,0,0,1-.34-.62,33.05,33.05,0,0,0-.62-16.67.48.48,0,0,1,.34-.61.49.49,0,0,1,.62.34,33.43,33.43,0,0,1,.62,17.22A.51.51,0,0,1,161.72,365.47Z" style="fill:#407BFF"></path><path d="M167,374.32c-6.17,1.39-17.93-2.2-23.23-6.94s7.2-3.72,5.07-7.94-16.08,2.09-20.09-3.75,6.84-6.53,5.76-9.71-11.88-.28-16.78-6.35,5.49-4.24,3.4-6.74-16.56-11.89-12-15.39,18.36,6.52,22.43,7.13,3.2-8.11,9-5,5.72,21.64,12,22.8c4.68.87,1.17-6.91,6.56-5.87C168.49,338.34,169.5,373.76,167,374.32Z" style="fill:#407BFF"></path><g style="opacity:0.4"><path d="M167,374.32c-6.17,1.39-17.93-2.2-23.23-6.94s7.2-3.72,5.07-7.94-16.08,2.09-20.09-3.75,6.84-6.53,5.76-9.71-11.88-.28-16.78-6.35,5.49-4.24,3.4-6.74-16.56-11.89-12-15.39,18.36,6.52,22.43,7.13,3.2-8.11,9-5,5.72,21.64,12,22.8c4.68.87,1.17-6.91,6.56-5.87C168.49,338.34,169.5,373.76,167,374.32Z" style="fill:#fff"></path></g><path d="M174,393.69H174a.5.5,0,0,1-.52-.48c0-.09-.09-1.07-.28-2.74-.27-2.51-.9-7.76-2.08-14.72,0-.13,0-.21-.05-.3-1.34-7.78-3-15.38-4.88-22.61-1.77-6.75-3.8-13.25-6-19.32a162.45,162.45,0,0,0-6.54-15.35l0,0h0c-.36-.73-.73-1.46-1.11-2.2s-.62-1.19-.95-1.78c-.83-1.55-1.6-3-2.28-4.42-1.52-3-2.91-6.08-4.15-9.07-.75-1.78-1.44-3.55-2.06-5.24a120.66,120.66,0,0,1-5.48-19.78c-.49-2.65-.88-5.31-1.15-7.91a78,78,0,0,1-.42-8.21c0-.19,0-.37,0-.55v-.25a.52.52,0,0,1,.08-.36.51.51,0,0,1,.7-.12.57.57,0,0,1,.22.46h0V259c0,.18,0,.37,0,.57a76.19,76.19,0,0,0,.42,8.09c.26,2.57.64,5.21,1.13,7.83a119.62,119.62,0,0,0,5.44,19.61c.62,1.68,1.3,3.43,2.05,5.21,1.22,3,2.61,6,4.11,9,.68,1.37,1.44,2.85,2.27,4.38.33.6.64,1.2,1,1.8s.75,1.47,1.11,2.21l0,0h0a160.87,160.87,0,0,1,6.59,15.45c2.24,6.11,4.28,12.64,6.05,19.41,1.91,7.26,3.56,14.89,4.9,22.68,0,.11,0,.22.06.35,1.18,7,1.81,12.23,2.08,14.75.2,1.7.29,2.72.29,2.82A.5.5,0,0,1,174,393.69Z" style="fill:#407BFF"></path><path d="M136.45,258.82s0,0,0,0l0,0a15.41,15.41,0,0,1,2.39-2.52,15.17,15.17,0,0,1,3.2-2" style="fill:#407BFF"></path><path d="M136.53,259.31a.67.67,0,0,1-.2,0,.5.5,0,0,1-.36-.61.44.44,0,0,1,.08-.17.1.1,0,0,1,0,0h0a15.11,15.11,0,0,1,5.79-4.69.5.5,0,0,1,.66.25.51.51,0,0,1-.25.66,14.4,14.4,0,0,0-3.09,1.95,14.69,14.69,0,0,0-2.31,2.43v0A.56.56,0,0,1,136.53,259.31Z" style="fill:#407BFF"></path><path d="M137,268.18a.49.49,0,0,1-.33-.07l-3.77-2.22a.51.51,0,0,1-.17-.69.5.5,0,0,1,.68-.17l3.77,2.22a.5.5,0,0,1,.17.69A.54.54,0,0,1,137,268.18Z" style="fill:#407BFF"></path><path d="M149.74,310.06a.53.53,0,0,1-.57-.44h0a13.11,13.11,0,0,1,.25-2.79,13.28,13.28,0,0,1,2.93-6.2.5.5,0,1,1,.77.64,12.13,12.13,0,0,0-1.53,2.28,12.34,12.34,0,0,0-1.19,3.46,13.26,13.26,0,0,0-.24,2.51.46.46,0,0,1-.39.55Z" style="fill:#407BFF"></path><path d="M154.1,318.44a.49.49,0,0,1-.49-.22,8.47,8.47,0,0,0-5.64-3.67.5.5,0,0,1-.41-.57.49.49,0,0,1,.57-.41,9.41,9.41,0,0,1,6.31,4.1.5.5,0,0,1-.34.77Z" style="fill:#407BFF"></path><path d="M168.63,361.19c-1.32-1.07-3.12-5.78-4.09-8.31-.24-.61-.43-1.13-.59-1.5" style="fill:#407BFF"></path><path d="M168.71,361.68a.51.51,0,0,1-.39-.1c-1.32-1.06-2.89-5-4.25-8.52-.23-.61-.43-1.12-.58-1.49a.5.5,0,0,1,.93-.38c.15.38.35.9.58,1.51.89,2.31,2.73,7.12,3.95,8.1a.5.5,0,0,1-.24.88Z" style="fill:#407BFF"></path><path d="M145.62,301a.5.5,0,0,1-.57-.38c-.18-.8-4.48-19.62,4.8-28.91a.5.5,0,0,1,.71,0,.51.51,0,0,1,0,.71c-8.89,8.89-4.58,27.78-4.53,28a.5.5,0,0,1-.38.6Z" style="fill:#407BFF"></path><path d="M153.09,342.26c-.47,4.81,11,11.41,11,11.41s12.55-4.25,13-9.05-4.3-11.52-10.94-12.17S153.56,337.46,153.09,342.26Z" style="fill:#407BFF"></path><path d="M131.07,289.69c2.22,4.54,12.13,6.06,12.13,6.06s4.9-8.75,2.69-13.29-8.39-8.79-12.48-6.79S128.86,285.14,131.07,289.69Z" style="fill:#407BFF"></path><path d="M158.51,300.07a12.53,12.53,0,0,1-3.5,3,4.25,4.25,0,0,1-4.42-.13c-1.53-1.17-1.65-3.45-1.22-5.33.85-3.72,5.36-10.67,10.08-9.91C166.26,288.84,160.9,297.4,158.51,300.07Z" style="fill:#407BFF"></path><path d="M147.35,311.4c1,.86,2.18,2,2,3.31a2.69,2.69,0,0,1-2.62,2,8,8,0,0,1-3.44-.89c-2.55-1.09-7.79-3.4-5.49-7C140.17,305,145.16,309.59,147.35,311.4Z" style="fill:#407BFF"></path><path d="M157.15,264.3a2.34,2.34,0,0,1,2.43,1.26c.42,1.07-.3,2.23-1.05,3.09-1.86,2.17-7.58,8.14-10,4C146.29,268.73,154.14,264.58,157.15,264.3Z" style="fill:#407BFF"></path><path d="M141.88,252.19c1.4-.15,2.67-.93,4.07-1.13s3.15.6,3.12,2-1.49,2-2.75,2.38a25.28,25.28,0,0,1-6.59.88,2,2,0,0,1-1.45-.4c-.73-.7-.07-2,.82-2.47a14,14,0,0,0,2.74-1.27Z" style="fill:#407BFF"></path><path d="M130.39,264.39c-1.37.33-2.83,0-4.21.29s-2.77,1.61-2.28,2.93,2.08,1.43,3.38,1.33a25.4,25.4,0,0,0,6.51-1.35,2,2,0,0,0,1.24-.86c.45-.9-.6-1.89-1.6-2.06s-2.07.09-3-.29Z" style="fill:#407BFF"></path><path d="M136.36,260.72h0a.51.51,0,0,1-.55-.46c-.24-2.73-.94-5.28-1.47-5.35a.5.5,0,1,1,.12-1c1.64.21,2.19,4.44,2.35,6.26A.49.49,0,0,1,136.36,260.72Z" style="fill:#407BFF"></path><path d="M136.27,254.23c-1.22-1.7-2.52-3.47-4.42-4.33s-4.58-.41-5.45,1.49c-1,2.12,1,4.66,3.23,5.22s4.63-.23,6.83-1l-.15-1Z" style="fill:#407BFF"></path><path d="M315.3,414.67h20.92a44.42,44.42,0,0,0,7.08-16.22,39.68,39.68,0,0,0,.75-8.55,51.72,51.72,0,0,0-2-12.87,62.87,62.87,0,0,0-6.66-15.64s-17.75,12.34-21.53,31.19C312.31,400.48,313.45,408.29,315.3,414.67Z" style="fill:#407BFF"></path><path d="M315.3,414.67h20.92a44.42,44.42,0,0,0,7.08-16.22,39.68,39.68,0,0,0,.75-8.55,51.72,51.72,0,0,0-2-12.87,62.87,62.87,0,0,0-6.66-15.64s-17.75,12.34-21.53,31.19C312.31,400.48,313.45,408.29,315.3,414.67Z" style="opacity:0.2;isolation:isolate"></path><path d="M320.85,414.67H345.3a37,37,0,0,0,5.84-7.54c9.2-15.77,4.27-36,4.27-36A57.9,57.9,0,0,0,342.09,377a50.31,50.31,0,0,0-10,7.76,37.55,37.55,0,0,0-5.72,7.41C322.14,399.55,320.92,407.88,320.85,414.67Z" style="fill:#407BFF"></path><g style="opacity:0.2"><path d="M320.85,414.67H345.3a37,37,0,0,0,5.84-7.54c9.2-15.77,4.27-36,4.27-36A57.9,57.9,0,0,0,342.09,377a50.31,50.31,0,0,0-10,7.76,37.55,37.55,0,0,0-5.72,7.41C322.14,399.55,320.92,407.88,320.85,414.67Z" style="fill:#fff"></path></g></g><g id="freepik--Lines--inject-18"><path d="M250.27,306.4a.5.5,0,0,1-.5-.5l-.24-156.32a.5.5,0,0,1,.5-.5h0a.5.5,0,0,1,.5.5l.24,156.32a.5.5,0,0,1-.5.5Z" style="fill:#263238"></path><path d="M250,145.49a.5.5,0,0,1-.5-.5v-3a.5.5,0,0,1,.5-.5.48.48,0,0,1,.5.5v3a.5.5,0,0,1-.5.5Z" style="fill:#263238"></path><path d="M250,139.27a.5.5,0,0,1-.5-.49v-9.25a.5.5,0,0,1,.5-.5h0a.5.5,0,0,1,.5.5v9.24a.49.49,0,0,1-.49.5Z" style="fill:#263238"></path><path d="M250.27,306.4a.5.5,0,0,1-.47-.33L209.84,197a.5.5,0,0,1,.29-.64.51.51,0,0,1,.65.3l40,109.07a.49.49,0,0,1-.3.64A.47.47,0,0,1,250.27,306.4Z" style="fill:#263238"></path><path d="M210.31,197.33a.5.5,0,0,1-.47-.33l-1.9-5.18a.5.5,0,1,1,.94-.34l1.9,5.18a.5.5,0,0,1-.3.64Z" style="fill:#263238"></path><path d="M205.7,184.76a.51.51,0,0,1-.47-.33l-14.1-38.49a.5.5,0,1,1,.94-.35l14.1,38.49a.52.52,0,0,1-.3.65A.47.47,0,0,1,205.7,184.76Z" style="fill:#263238"></path><path d="M250.27,306.4a.49.49,0,0,1-.38-.18L158.36,197.69a.51.51,0,0,1,.06-.71.51.51,0,0,1,.71.06l91.52,108.54a.5.5,0,0,1-.38.82Z" style="fill:#263238"></path><path d="M153.13,191.21a.49.49,0,0,1-.38-.18l-12.89-15.29a.5.5,0,0,1,.06-.71.5.5,0,0,1,.7.06l12.9,15.3a.5.5,0,0,1-.06.7A.52.52,0,0,1,153.13,191.21Z" style="fill:#263238"></path><path d="M319.39,224a.5.5,0,0,1-.38-.82l40.37-48.12a.49.49,0,0,1,.7-.06.52.52,0,0,1,.07.71l-40.38,48.11A.49.49,0,0,1,319.39,224Z" style="fill:#263238"></path><path d="M310.4,234.74a.5.5,0,0,1-.38-.82l4.68-5.58a.49.49,0,0,1,.7-.06.51.51,0,0,1,.06.71l-4.68,5.57A.48.48,0,0,1,310.4,234.74Z" style="fill:#263238"></path><path d="M250.27,306.4a.54.54,0,0,1-.32-.11.51.51,0,0,1-.06-.71L306,238.72a.5.5,0,0,1,.77.64l-56.11,66.86A.49.49,0,0,1,250.27,306.4Z" style="fill:#263238"></path><path d="M302.26,163.18l-.17,0a.5.5,0,0,1-.3-.64l6.14-16.92a.51.51,0,0,1,.64-.3.5.5,0,0,1,.3.64l-6.14,16.92A.5.5,0,0,1,302.26,163.18Z" style="fill:#263238"></path><path d="M250.27,306.4a.51.51,0,0,1-.17,0,.5.5,0,0,1-.3-.64l49.71-137a.5.5,0,1,1,.94.35L250.74,306.07A.48.48,0,0,1,250.27,306.4Z" style="fill:#263238"></path></g><g id="freepik--Clock--inject-18"><path d="M183.14,386.4s7.61-1.91,11.41,2.61a6,6,0,0,1,0,8.32l-13.68,17.5a3.18,3.18,0,0,1-2.45,1.16H174.3a3.18,3.18,0,0,1-2.8-4.68Z" style="fill:#263238"></path><ellipse cx="255.97" cy="327.51" rx="89.34" ry="89.3" transform="translate(-157.03 280.48) rotate(-45.49)" style="fill:#407BFF"></ellipse><g style="opacity:0.6000000000000001"><ellipse cx="255.97" cy="327.51" rx="89.34" ry="89.3" transform="translate(-157.03 280.48) rotate(-45.49)"></ellipse></g><circle cx="235.77" cy="327.51" r="89.32" transform="translate(-123.15 511.96) rotate(-81.45)" style="fill:#407BFF"></circle><circle cx="234.69" cy="327.51" r="71.68" style="fill:#fff;opacity:0.8"></circle><polygon points="231.67 324.63 200.83 353.65 203.82 356.84 231.77 330.54 281.85 374.79 284.75 371.51 231.67 324.63" style="fill:#263238"></polygon><path d="M239.78,331.26a7.27,7.27,0,1,1-7.27-7.27A7.28,7.28,0,0,1,239.78,331.26Z" style="fill:#407BFF"></path><path d="M315.83,386.4s-7.61-1.91-11.41,2.61a6,6,0,0,0,0,8.32l13.67,17.5a3.21,3.21,0,0,0,2.45,1.16h4.13a3.18,3.18,0,0,0,2.8-4.68Z" style="fill:#263238"></path></g><g id="freepik--Sport--inject-18"><path d="M386.16,163.37a14.66,14.66,0,0,1-3.17,1.8,11.53,11.53,0,0,1-5,.93,18.78,18.78,0,0,1-11.62-9.32l.31.28c.25.22.5.44.77.64a19.41,19.41,0,0,0,5,2.68,38.41,38.41,0,0,0,10.31,2.15A30.93,30.93,0,0,1,386.16,163.37Z" style="fill:#407BFF"></path><path d="M389.91,165.89a18.89,18.89,0,0,1-8.66,1,13.85,13.85,0,0,0,2.54-.76,15.92,15.92,0,0,0,3.79-2.22,4.67,4.67,0,0,1,1.89,1.06A2.15,2.15,0,0,1,389.91,165.89Z" style="fill:#407BFF"></path><path d="M396.57,161.65a18.57,18.57,0,0,1-5.82,3.78,2.8,2.8,0,0,0-.56-1.1,4.55,4.55,0,0,0-1.81-1.14c.28-.24.55-.49.82-.75a22.5,22.5,0,0,0,1.79-1.95A13.4,13.4,0,0,0,396.57,161.65Z" style="fill:#407BFF"></path><path d="M398.63,159.35a16.75,16.75,0,0,1-1.08,1.29l0-.07a7.4,7.4,0,0,1-4.41-.33c-.48-.15-1-.32-1.51-.52a27.92,27.92,0,0,0,2.27-3.54,5.64,5.64,0,0,0,4.3-.26c1.56-.8,2.93-2.47,4.09-5A18.65,18.65,0,0,1,398.63,159.35Z" style="fill:#407BFF"></path><path d="M398.14,154.86a4.83,4.83,0,0,1-3.62.25l.39-.77A30.45,30.45,0,0,0,398,143.92a18.83,18.83,0,0,0-.73-7.41,15.45,15.45,0,0,0-1.8-3.83,18.65,18.65,0,0,1,6.7,10.11,11.86,11.86,0,0,1-1.52,9.64A7.15,7.15,0,0,1,398.14,154.86Z" style="fill:#407BFF"></path><path d="M393.47,154.59c-1.68-.81-3.23-3.3-3.79-4.88-5.32-14.82-8.67-19.35-10.47-20.65a18.78,18.78,0,0,1,13.91,2,13.66,13.66,0,0,1,3.15,5.46c1.07,3.44,1.53,9.23-2.37,17.25C393.76,154,393.62,154.32,393.47,154.59Z" style="fill:#407BFF"></path><path d="M390.58,159.13a40,40,0,0,1-4.29-2.1,51.24,51.24,0,0,1-13.05-10.35c-3.33-3.85-4.65-6.44-5.17-7.93a7.84,7.84,0,0,1-.33-1.32c.27-.42.55-.82.86-1.22a18.67,18.67,0,0,1,9.33-6.49c.36.11,1.15.54,2.37,2.22,2.39,3.27,5.23,9.46,8.43,18.39a11.52,11.52,0,0,0,3.32,4.76,4.88,4.88,0,0,0,.82.52A26.83,26.83,0,0,1,390.58,159.13Z" style="fill:#407BFF"></path><path d="M389.91,160a19.59,19.59,0,0,1-2.69,2.7,29.39,29.39,0,0,0-4.06-1h0c-8.79-.74-13.32-3.25-15.58-5.23a10.33,10.33,0,0,1-1.9-2.17A18.73,18.73,0,0,1,367,138.59c0,.16.09.32.14.49.76,2.29,2.56,5.09,5.36,8.33a45.94,45.94,0,0,0,6.61,6.12,54.85,54.85,0,0,0,6.64,4.39A39.85,39.85,0,0,0,389.91,160Z" style="fill:#407BFF"></path><g style="opacity:0.4"><path d="M389.91,165.89a18.89,18.89,0,0,1-8.66,1,13.85,13.85,0,0,0,2.54-.76,15.92,15.92,0,0,0,3.79-2.22,4.67,4.67,0,0,1,1.89,1.06A2.15,2.15,0,0,1,389.91,165.89Z" style="fill:#fff;opacity:0.7000000000000001"></path><path d="M396.57,161.65a18.57,18.57,0,0,1-5.82,3.78,2.8,2.8,0,0,0-.56-1.1,4.55,4.55,0,0,0-1.81-1.14c.28-.24.55-.49.82-.75a22.5,22.5,0,0,0,1.79-1.95A13.4,13.4,0,0,0,396.57,161.65Z" style="fill:#fff;opacity:0.7000000000000001"></path><path d="M398.63,159.35a16.75,16.75,0,0,1-1.08,1.29l0-.07a7.4,7.4,0,0,1-4.41-.33c-.48-.15-1-.32-1.51-.52a27.92,27.92,0,0,0,2.27-3.54,5.64,5.64,0,0,0,4.3-.26c1.56-.8,2.93-2.47,4.09-5A18.65,18.65,0,0,1,398.63,159.35Z" style="fill:#fff;opacity:0.7000000000000001"></path><path d="M398.14,154.86a4.83,4.83,0,0,1-3.62.25l.39-.77A30.45,30.45,0,0,0,398,143.92a18.83,18.83,0,0,0-.73-7.41,15.45,15.45,0,0,0-1.8-3.83,18.65,18.65,0,0,1,6.7,10.11,11.86,11.86,0,0,1-1.52,9.64A7.15,7.15,0,0,1,398.14,154.86Z" style="fill:#fff"></path><path d="M386.16,163.37a14.66,14.66,0,0,1-3.17,1.8,11.53,11.53,0,0,1-5,.93,18.78,18.78,0,0,1-11.62-9.32l.31.28c.25.22.5.44.77.64a19.41,19.41,0,0,0,5,2.68,38.41,38.41,0,0,0,10.31,2.15A30.93,30.93,0,0,1,386.16,163.37Z" style="fill:#fff;opacity:0.7000000000000001"></path><path d="M393.47,154.59c-1.68-.81-3.23-3.3-3.79-4.88-5.32-14.82-8.67-19.35-10.47-20.65a18.78,18.78,0,0,1,13.91,2,13.66,13.66,0,0,1,3.15,5.46c1.07,3.44,1.53,9.23-2.37,17.25C393.76,154,393.62,154.32,393.47,154.59Z" style="fill:#fff"></path><path d="M390.58,159.13a40,40,0,0,1-4.29-2.1,51.24,51.24,0,0,1-13.05-10.35c-3.33-3.85-4.65-6.44-5.17-7.93a7.84,7.84,0,0,1-.33-1.32c.27-.42.55-.82.86-1.22a18.67,18.67,0,0,1,9.33-6.49c.36.11,1.15.54,2.37,2.22,2.39,3.27,5.23,9.46,8.43,18.39a11.52,11.52,0,0,0,3.32,4.76,4.88,4.88,0,0,0,.82.52A26.83,26.83,0,0,1,390.58,159.13Z" style="fill:#fff"></path><path d="M389.91,160a19.59,19.59,0,0,1-2.69,2.7,29.39,29.39,0,0,0-4.06-1h0c-8.79-.74-13.32-3.25-15.58-5.23a10.33,10.33,0,0,1-1.9-2.17A18.73,18.73,0,0,1,367,138.59c0,.16.09.32.14.49.76,2.29,2.56,5.09,5.36,8.33a45.94,45.94,0,0,0,6.61,6.12,54.85,54.85,0,0,0,6.64,4.39A39.85,39.85,0,0,0,389.91,160Z" style="fill:#fff"></path></g></g><g id="freepik--Love--inject-18"><polygon points="319.76 125.04 310.98 132.24 310.4 131.66 319.27 124.33 319.76 125.04" style="fill:#407BFF"></polygon><path d="M327.46,112.87c.55-4.3-3.8-8.73-8-9.61s-10.14,2.66-11.3,6.83c-2.93,10.63,7.56,16,10.62,18.28s6.55,4.9,6.52,7.19c1.55-2.5,3.08-3.65,5.22-5.67a42.07,42.07,0,0,0,6-6.46,13.15,13.15,0,0,0,2.59-8.27c-.22-2.93-2-5.94-4.78-6.85C328.49,106.44,327.46,112.87,327.46,112.87Z" style="fill:#407BFF"></path><g style="opacity:0.5"><path d="M327.46,112.87c.55-4.3-3.8-8.73-8-9.61s-10.14,2.66-11.3,6.83c-2.93,10.63,7.56,16,10.62,18.28s6.55,4.9,6.52,7.19c1.55-2.5,3.08-3.65,5.22-5.67a42.07,42.07,0,0,0,6-6.46,13.15,13.15,0,0,0,2.59-8.27c-.22-2.93-2-5.94-4.78-6.85C328.49,106.44,327.46,112.87,327.46,112.87Z" style="fill:#fff"></path></g><polygon points="341.15 108.36 332.37 115.56 331.79 114.98 340.66 107.65 341.15 108.36" style="fill:#407BFF"></polygon><polygon points="338.14 105.94 342.59 111.13 345.61 103.73 338.14 105.94" style="fill:#407BFF"></polygon></g><g id="freepik--Money--inject-18"><path d="M238.29,116.37c0,1.68,5.31,3.11,11.91,3.21s12-1.18,12-2.85-5.31-3.11-11.91-3.21S238.31,114.7,238.29,116.37Z" style="fill:#407BFF"></path><rect x="248.75" y="103.08" width="3.03" height="23.92" transform="translate(131.54 363.57) rotate(-89.15)" style="fill:#407BFF"></rect><path d="M238.33,113.34c0,1.68,5.31,3.11,11.91,3.21s12-1.18,12-2.85-5.31-3.11-11.92-3.21S238.36,111.67,238.33,113.34Z" style="fill:#407BFF"></path><path d="M238.33,113.34c0,1.68,5.31,3.11,11.91,3.21s12-1.18,12-2.85-5.31-3.11-11.92-3.21S238.36,111.67,238.33,113.34Z" style="fill:#fff;opacity:0.4"></path><path d="M239.85,113.25a.44.44,0,0,0,.11.29c.78-1,5.13-1.7,10.35-1.62s9.57.9,10.3,1.93a.46.46,0,0,0,.11-.29c0-1.13-4.63-2.14-10.4-2.23S239.87,112.12,239.85,113.25Z" style="fill:#407BFF"></path><path d="M239.85,113.25a.44.44,0,0,0,.11.29c.78-1,5.13-1.7,10.35-1.62s9.57.9,10.3,1.93a.46.46,0,0,0,.11-.29c0-1.13-4.63-2.14-10.4-2.23S239.87,112.12,239.85,113.25Z" style="fill:#407BFF;opacity:0.4"></path><path d="M240,113.54c.75,1,5.07,1.86,10.3,1.94s9.59-.62,10.35-1.63c-.73-1-5.06-1.85-10.3-1.93S240.74,112.54,240,113.54Z" style="fill:#407BFF;opacity:0.4"></path><path d="M237.16,111.82c0,1.67,5.31,3.11,11.91,3.21s12-1.18,12-2.86-5.31-3.1-11.92-3.2S237.19,110.15,237.16,111.82Z" style="fill:#407BFF"></path><rect x="247.63" y="98.52" width="3.03" height="23.92" transform="translate(134.99 357.96) rotate(-89.15)" style="fill:#407BFF"></rect><path d="M237.21,108.79c0,1.67,5.3,3.11,11.91,3.21s12-1.18,12-2.86-5.31-3.1-11.91-3.2S237.23,107.12,237.21,108.79Z" style="fill:#407BFF"></path><path d="M237.21,108.79c0,1.67,5.3,3.11,11.91,3.21s12-1.18,12-2.86-5.31-3.1-11.91-3.2S237.23,107.12,237.21,108.79Z" style="fill:#fff;opacity:0.4"></path><path d="M238.73,108.7a.48.48,0,0,0,.11.29c.77-1,5.12-1.7,10.34-1.62s9.57.9,10.3,1.93a.49.49,0,0,0,.12-.29c0-1.14-4.64-2.14-10.41-2.23S238.74,107.56,238.73,108.7Z" style="fill:#407BFF"></path><path d="M238.73,108.7a.48.48,0,0,0,.11.29c.77-1,5.12-1.7,10.34-1.62s9.57.9,10.3,1.93a.49.49,0,0,0,.12-.29c0-1.14-4.64-2.14-10.41-2.23S238.74,107.56,238.73,108.7Z" style="fill:#407BFF;opacity:0.4"></path><path d="M238.84,109c.74,1,5.07,1.85,10.29,1.93s9.59-.62,10.35-1.62c-.73-1-5.06-1.86-10.3-1.93S239.61,108,238.84,109Z" style="fill:#407BFF;opacity:0.4"></path><path d="M238,106.93c0,1.67,5.3,3.11,11.91,3.21s12-1.18,12-2.86-5.31-3.1-11.91-3.2S238.05,105.26,238,106.93Z" style="fill:#407BFF"></path><rect x="248.49" y="93.63" width="3.03" height="23.92" transform="translate(140.72 354.01) rotate(-89.15)" style="fill:#407BFF"></rect><path d="M238.07,103.9c0,1.67,5.31,3.11,11.91,3.21s12-1.18,12-2.85-5.31-3.11-11.92-3.21S238.1,102.23,238.07,103.9Z" style="fill:#407BFF"></path><path d="M238.07,103.9c0,1.67,5.31,3.11,11.91,3.21s12-1.18,12-2.85-5.31-3.11-11.92-3.21S238.1,102.23,238.07,103.9Z" style="fill:#fff;opacity:0.4"></path><path d="M239.59,103.81a.46.46,0,0,0,.11.29c.77-1,5.13-1.7,10.35-1.62s9.57.9,10.29,1.93a.44.44,0,0,0,.12-.29c0-1.14-4.63-2.14-10.4-2.23S239.61,102.67,239.59,103.81Z" style="fill:#407BFF"></path><path d="M239.59,103.81a.46.46,0,0,0,.11.29c.77-1,5.13-1.7,10.35-1.62s9.57.9,10.29,1.93a.44.44,0,0,0,.12-.29c0-1.14-4.63-2.14-10.4-2.23S239.61,102.67,239.59,103.81Z" style="fill:#407BFF;opacity:0.4"></path><path d="M239.7,104.1c.74,1,5.07,1.86,10.3,1.93s9.59-.62,10.34-1.62c-.72-1-5-1.85-10.29-1.93S240.47,103.1,239.7,104.1Z" style="fill:#407BFF;opacity:0.4"></path><path d="M237.1,102.23c0,1.67,5.3,3.11,11.91,3.21s12-1.18,12-2.85-5.31-3.11-11.91-3.21S237.12,100.56,237.1,102.23Z" style="fill:#407BFF"></path><rect x="247.56" y="88.94" width="3.03" height="23.92" transform="translate(144.51 348.45) rotate(-89.15)" style="fill:#407BFF"></rect><path d="M237.14,99.2c0,1.68,5.31,3.11,11.91,3.21s12-1.18,12-2.85-5.3-3.11-11.91-3.21S237.17,97.53,237.14,99.2Z" style="fill:#407BFF"></path><path d="M237.14,99.2c0,1.68,5.31,3.11,11.91,3.21s12-1.18,12-2.85-5.3-3.11-11.91-3.21S237.17,97.53,237.14,99.2Z" style="fill:#fff;opacity:0.4"></path><path d="M238.66,99.11a.46.46,0,0,0,.11.29c.77-1,5.13-1.7,10.35-1.62s9.57.9,10.29,1.93a.42.42,0,0,0,.12-.29c0-1.14-4.63-2.14-10.4-2.23S238.68,98,238.66,99.11Z" style="fill:#407BFF"></path><path d="M238.66,99.11a.46.46,0,0,0,.11.29c.77-1,5.13-1.7,10.35-1.62s9.57.9,10.29,1.93a.42.42,0,0,0,.12-.29c0-1.14-4.63-2.14-10.4-2.23S238.68,98,238.66,99.11Z" style="fill:#407BFF;opacity:0.4"></path><path d="M238.77,99.4c.74,1,5.07,1.86,10.3,1.93s9.59-.62,10.34-1.62c-.72-1-5.05-1.85-10.29-1.93S239.54,98.4,238.77,99.4Z" style="fill:#407BFF;opacity:0.4"></path><path d="M239.42,91.55c.14,5,5.17,8.84,11.23,8.67s10.86-4.32,10.72-9.28-5.16-8.84-11.22-8.67S239.29,86.59,239.42,91.55Z" style="fill:#407BFF"></path><path d="M239.37,89.58c.14,5,5.16,8.84,11.22,8.67s10.87-4.32,10.73-9.28-5.16-8.84-11.22-8.67S239.23,84.62,239.37,89.58Z" style="fill:#407BFF"></path><path d="M239.37,89.58c.14,5,5.16,8.84,11.22,8.67s10.87-4.32,10.73-9.28-5.16-8.84-11.22-8.67S239.23,84.62,239.37,89.58Z" style="fill:#fff;opacity:0.4"></path><path d="M242.11,89.34c0,.24,0,.48.06.69,0,0,0,0,0,.06.57,3.37,4.13,5.87,8.35,5.75s7.66-2.81,8-6.21a0,0,0,0,1,0,0,5.25,5.25,0,0,0,0-.69c-.1-3.71-3.88-6.63-8.42-6.5S242,85.63,242.11,89.34Z" style="fill:#407BFF"></path><path d="M242.17,90s0,0,0,.06c.57,3.37,4.13,5.87,8.35,5.75s7.66-2.81,8-6.21a0,0,0,0,1,0,0c-.56-3.35-4.13-5.87-8.36-5.76S242.55,86.66,242.17,90Z" style="fill:#fff;opacity:0.30000000000000004"></path><g style="opacity:0.5"><path d="M253.49,91.14c0,1.5-1.13,2.53-3,2.74l-.21,1.24-1.12,0,.21-1.24a5.37,5.37,0,0,1-2.61-.79l.71-1.42a4.43,4.43,0,0,0,2.15.74l.33-1.91c-1.05-.28-2.21-.67-2.25-2s1.16-2.54,3.06-2.73l.22-1.24,1.12,0-.21,1.25a4.89,4.89,0,0,1,2.08.59l-.64,1.41a3.78,3.78,0,0,0-1.69-.54l-.34,2C252.33,89.48,253.45,89.85,253.49,91.14Zm-3.28-2.22.28-1.63c-.63.14-1,.5-1,.93S249.8,88.76,250.21,88.92Zm1.47,2.56c0-.32-.28-.52-.67-.65l-.26,1.55C251.35,92.24,251.69,91.91,251.68,91.48Z" style="fill:#fff"></path></g></g><g id="freepik--Food--inject-18"><polygon points="183.5 135.24 171.16 135.24 170.16 101.57 184.5 101.57 183.5 135.24" style="fill:#407BFF"></polygon><polygon points="183.5 135.24 171.16 135.24 170.16 101.57 184.5 101.57 183.5 135.24" style="fill:#fff;opacity:0.7000000000000001"></polygon><polygon points="185.83 102.66 168.83 102.66 169.83 99.74 184.83 99.74 185.83 102.66" style="fill:#407BFF"></polygon><polygon points="183.91 121.53 184.17 112.77 170.49 112.77 170.75 121.53 183.91 121.53" style="fill:#407BFF"></polygon><path d="M180.16,117.15a2.83,2.83,0,1,1-2.83-2.83A2.83,2.83,0,0,1,180.16,117.15Z" style="fill:#fff;opacity:0.8"></path><path d="M205,120.24c-.49-2-1.67-4.2-3.71-4.64-2.2-.48-4.22,1.22-5.84,2.79-.92-3.43-5.14-5.33-8.53-4.28s-5.72,4.5-6.07,8a14.7,14.7,0,0,0,3.13,10c2.07,2.82,4.38,4.12,7.83,3.43,2.47-.49,4.53.18,6.91-.1C204.59,134.72,206.09,124.74,205,120.24Z" style="fill:#407BFF"></path><path d="M195.89,111c.25.41,1-.11,1.38-.39-.65,1.66-.6,5.49-1.08,7.19-.22.79-1.09.37-1.21.22C195.3,114.55,195.47,110.35,195.89,111Z" style="fill:#263238"></path><path d="M198,111.39a16.12,16.12,0,0,1,3.07-1.77,8.42,8.42,0,0,1-1.14,3.6,4.25,4.25,0,0,1-3.12,1.82C194.45,115.23,197.3,111.91,198,111.39Z" style="fill:#407BFF"></path><path d="M188.46,116.44a1,1,0,1,0-.17,1.79,1.09,1.09,0,0,0,.28-1.74Z" style="fill:#fff"></path><path d="M185.7,130.45a.8.8,0,0,0,.41.3c.32.06.59-.31.56-.63a1.86,1.86,0,0,0-.4-.88,6.57,6.57,0,0,1-.5-6.13,9.34,9.34,0,0,0,.63-1.5c.32-1.24-.68-2.41-1.87-1.69-.91.56-1,2.48-1.1,3.39A10,10,0,0,0,185.7,130.45Z" style="fill:#fff"></path></g><g id="freepik--Books--inject-18"><path d="M131.65,140.19V147a.66.66,0,0,1,0,1.31c-2.62,0-5.23,0-7.85,0v-9.52h7.85A.66.66,0,0,1,131.65,140.19Z" style="fill:#407BFF"></path><path d="M131.65,140.19V147a.66.66,0,0,1,0,1.31c-2.62,0-5.23,0-7.85,0v-9.52h7.85A.66.66,0,0,1,131.65,140.19Z" style="fill:#fff;opacity:0.30000000000000004"></path><rect x="125.55" y="140.19" width="6.09" height="6.85" style="fill:#407BFF"></rect><rect x="125.55" y="140.19" width="6.09" height="6.85" style="fill:#fff;opacity:0.6000000000000001"></rect><path d="M126.83,139.53H93.2c-1.45,0-2.63,1.83-2.63,4.08s1.18,4.09,2.63,4.09h33.63Z" style="fill:#407BFF"></path><path d="M126.83,139.53H93.2c-1.45,0-2.63,1.83-2.63,4.08s1.18,4.09,2.63,4.09h33.63Z" style="fill:#fff;opacity:0.9"></path><path d="M126.83,148.35c-6.91,0-26.35.13-33.27,0-4.73-.08-5-9.16-.34-9.48,3.24-.22,6.57,0,9.81,0h23.8a.66.66,0,0,1,0,1.32H94.66c-1.52,0-2.6,0-3.19,1.8-.51,1.55-.35,4.71,1.73,5a4.21,4.21,0,0,0,.71,0h32.92a.66.66,0,0,1,0,1.31Z" style="fill:#407BFF"></path><g style="opacity:0.2"><path d="M126.83,148.35c-6.91,0-26.35.13-33.27,0-4.73-.08-5-9.16-.34-9.48,3.24-.22,6.57,0,9.81,0h23.8a.66.66,0,0,1,0,1.32H94.66c-1.52,0-2.6,0-3.19,1.8-.51,1.55-.35,4.71,1.73,5a4.21,4.21,0,0,0,.71,0h32.92a.66.66,0,0,1,0,1.31Z" style="fill:#fff"></path></g><path d="M129.17,149.64V156a.61.61,0,0,1,0,1.22q-3.63,0-7.26,0v-8.82h7.26A.61.61,0,0,1,129.17,149.64Z" style="fill:#407BFF"></path><path d="M129.17,149.64V156a.61.61,0,0,1,0,1.22q-3.63,0-7.26,0v-8.82h7.26A.61.61,0,0,1,129.17,149.64Z" style="fill:#fff;opacity:0.30000000000000004"></path><rect x="123.53" y="149.65" width="5.64" height="6.34" style="fill:#407BFF"></rect><rect x="123.53" y="149.65" width="5.64" height="6.34" style="fill:#fff;opacity:0.6000000000000001"></rect><path d="M124.71,149H93.56c-1.34,0-2.43,1.69-2.43,3.78s1.09,3.79,2.43,3.79h31.15Z" style="fill:#407BFF"></path><path d="M124.71,149H93.56c-1.34,0-2.43,1.69-2.43,3.78s1.09,3.79,2.43,3.79h31.15Z" style="fill:#fff;opacity:0.9"></path><path d="M124.71,157.21c-6.4,0-24.41.11-30.81,0-4.38-.08-4.62-8.49-.32-8.79,3-.2,6.09,0,9.09,0h22a.61.61,0,0,1,0,1.22H94.91c-1.4,0-2.41,0-3,1.67-.47,1.44-.32,4.36,1.6,4.68a4.85,4.85,0,0,0,.66,0h30.49a.61.61,0,0,1,0,1.22Z" style="fill:#407BFF"></path><path d="M133.56,158.74v7.56a.73.73,0,0,1,0,1.45q-4.32,0-8.64,0V157.29h8.64A.73.73,0,0,1,133.56,158.74Z" style="fill:#407BFF"></path><path d="M133.56,158.74v7.56a.73.73,0,0,1,0,1.45q-4.32,0-8.64,0V157.29h8.64A.73.73,0,0,1,133.56,158.74Z" style="fill:#fff;opacity:0.30000000000000004"></path><rect x="126.85" y="158.75" width="6.71" height="7.55" style="fill:#407BFF"></rect><rect x="126.85" y="158.75" width="6.71" height="7.55" style="fill:#fff;opacity:0.6000000000000001"></rect><path d="M128.25,158H91.19c-1.6,0-2.9,2-2.9,4.5s1.3,4.5,2.9,4.5h37.06Z" style="fill:#407BFF"></path><path d="M128.25,158H91.19c-1.6,0-2.9,2-2.9,4.5s1.3,4.5,2.9,4.5h37.06Z" style="fill:#fff;opacity:0.9"></path><path d="M128.25,167.75c-7.62,0-29,.13-36.66,0-5.22-.1-5.5-10.1-.38-10.46,3.57-.24,7.24,0,10.82,0h26.22a.73.73,0,0,1,0,1.45H92.79c-1.67,0-2.86,0-3.51,2-.56,1.71-.38,5.19,1.91,5.57a5.08,5.08,0,0,0,.78,0h36.28a.73.73,0,0,1,0,1.45Z" style="fill:#407BFF"></path><g style="opacity:0.2"><path d="M128.25,167.75c-7.62,0-29,.13-36.66,0-5.22-.1-5.5-10.1-.38-10.46,3.57-.24,7.24,0,10.82,0h26.22a.73.73,0,0,1,0,1.45H92.79c-1.67,0-2.86,0-3.51,2-.56,1.71-.38,5.19,1.91,5.57a5.08,5.08,0,0,0,.78,0h36.28a.73.73,0,0,1,0,1.45Z"></path></g></g><g id="freepik--Character--inject-18"><polygon points="196.83 299.95 194.16 316.02 186.42 316.04 187.43 299.08 196.83 299.95" style="fill:#ebb376"></polygon><path d="M183.46,316.5a3.27,3.27,0,0,1-2.28-.31.68.68,0,0,1-.08-.78,1,1,0,0,1,.52-.49c1.22-.49,4,.71,4.15.76a.19.19,0,0,1,.11.18.2.2,0,0,1-.13.16A12.77,12.77,0,0,1,183.46,316.5Zm-1.37-1.32a1.32,1.32,0,0,0-.33.08.47.47,0,0,0-.32.29c-.11.24-.05.34,0,.39.4.46,2.31.25,3.69-.09A8.2,8.2,0,0,0,182.09,315.18Z" style="fill:#263238"></path><path d="M185.72,316h-.08c-.94-.29-2.95-1.72-2.89-2.58,0-.21.12-.48.61-.58a1.29,1.29,0,0,1,1,.19c1.05.67,1.49,2.69,1.51,2.78a.15.15,0,0,1-.18.19Zm-2.2-2.84h-.1c-.32.07-.33.2-.34.25,0,.52,1.35,1.66,2.35,2.1a4.21,4.21,0,0,0-1.27-2.2,1,1,0,0,0-.64-.15Z" style="fill:#263238"></path><path d="M186.4,314.88l8.23-1a.66.66,0,0,1,.71.44l2.27,6.53a1.11,1.11,0,0,1-.68,1.41.86.86,0,0,1-.23.06c-3,.29-5.63.44-9.32.87-4.37.51-3.2.9-8.32,1.57-3.08.4-4.06-3-2.77-3.37,5.91-1.45,6.32-3.33,8.39-5.75A2.6,2.6,0,0,1,186.4,314.88Z" style="fill:#407BFF"></path><polygon points="195.13 310.21 186.82 309.28 187.43 299.08 196.83 299.95 195.13 310.21" style="opacity:0.1"></polygon><path d="M239.66,216.65s-48.77,1.44-50.74,14.85-3.66,74.27-3.66,74.27l11.36,1.37s7-33.82,11.12-68.28c0,0,51.84,3.15,54.36-4.1s.07-18,.07-18Z" style="fill:#407BFF"></path><path d="M239.66,216.65s-48.77,1.44-50.74,14.85-3.66,74.27-3.66,74.27l11.36,1.37s7-33.82,11.12-68.28c0,0,51.84,3.15,54.36-4.1s.07-18,.07-18Z" style="opacity:0.30000000000000004;isolation:isolate"></path><polygon points="197.75 308.6 183.85 307 183.92 302.01 198.76 303.38 197.75 308.6" style="fill:#407BFF"></polygon><path d="M213.6,235.09c0,.13,0,.25,0,.37a35.06,35.06,0,0,1,.24-4.92c1.31-9,24.59-12.94,34.15-14.19l11.66,0s2,9.11-.07,15.25S213.6,235.09,213.6,235.09Z" style="opacity:0.4"></path><polygon points="224.26 300.36 224.5 318.08 216.76 318.29 214.85 299.66 224.26 300.36" style="fill:#ebb376"></polygon><path d="M213.1,317.71a3.4,3.4,0,0,1-2.35-.65.71.71,0,0,1,0-.83,1,1,0,0,1,.61-.43c1.34-.35,4.11,1.31,4.24,1.38a.18.18,0,0,1,.08.2.17.17,0,0,1-.15.15A12.74,12.74,0,0,1,213.1,317.71Zm-1.25-1.58a1.08,1.08,0,0,0-.36,0,.52.52,0,0,0-.38.26c-.15.23-.1.35-.05.41.36.53,2.39.58,3.89.43A8.59,8.59,0,0,0,211.85,316.13Z" style="fill:#263238"></path><path d="M215.53,317.53a.11.11,0,0,1-.08,0c-.95-.44-2.85-2.22-2.66-3.12,0-.22.19-.48.72-.52a1.44,1.44,0,0,1,1.05.34c1,.86,1.18,3,1.19,3.13a.19.19,0,0,1-.09.17A.2.2,0,0,1,215.53,317.53Zm-1.9-3.29h-.11c-.34,0-.37.16-.38.21-.06.54,1.17,1.93,2.16,2.53a4.55,4.55,0,0,0-1-2.48,1,1,0,0,0-.65-.25Z" style="fill:#263238"></path><path d="M216.4,316.42l8.76.17a.71.71,0,0,1,.68.56l1.45,7.16a1.17,1.17,0,0,1-.91,1.39,1,1,0,0,1-.24,0c-3.16-.12-6-.34-9.9-.41-4.64-.09-3.48.49-8.93.46-3.29,0-3.82-3.76-2.43-3.92,6.4-.68,7.1-2.6,9.6-4.83A2.85,2.85,0,0,1,216.4,316.42Z" style="fill:#407BFF"></path><path d="M252.35,217.61s-43.24,3.94-45.21,17.35,7.1,72,7.1,72l11.32.47s1.35-39.83.4-65.15c0,0,46.36,1.56,48.87-5.7s0-18.94,0-18.94Z" style="fill:#263238"></path><path d="M252.35,217.61s-43.24,3.94-45.21,17.35,7.1,72,7.1,72l11.32.47s1.35-39.83.4-65.15c0,0,40,3.16,49.29-3.65,10.21-7.48-1.12-23.46-1.12-23.46Z" style="fill:#407BFF"></path><path d="M252.35,217.61s-43.24,3.94-45.21,17.35,7.1,72,7.1,72l11.32.47s1.35-39.83.4-65.15c0,0,40,3.16,49.29-3.65,10.21-7.48-1.12-23.46-1.12-23.46Z" style="opacity:0.2;isolation:isolate"></path><polygon points="216.01 310.61 215.57 306.38 224.34 306.81 224.39 310.79 216.01 310.61" style="opacity:0.1"></polygon><polygon points="226.87 308.92 212.96 308.41 212.36 303.01 227.64 303.66 226.87 308.92" style="fill:#407BFF"></polygon><g id="freepik--Character--inject-2--inject-18"><path d="M254.09,172.91c-1.2.24-2.25.44-3.37.61s-2.17.32-3.31.46c-2.2.26-4.42.43-6.7.54a52.27,52.27,0,0,1-14.06-1,25.88,25.88,0,0,1-3.82-1.26,15.35,15.35,0,0,1-3.85-2.35c-5.36-4.88-5.51-20.86-5.36-21.54l5.2.53s4,14.71,10,14.91a32.5,32.5,0,0,0,5.49.41c1.92,0,3.89-.06,5.89-.2s4-.37,6-.6l3-.4c1-.14,2.05-.29,2.9-.43Z" style="fill:#ff8b7b"></path><path d="M220.11,145.58l-.74-3.82-6.64,3.93s1,6.59,4.21,6l1.4-1.38A6.26,6.26,0,0,0,220.11,145.58Z" style="fill:#ff8b7b"></path><polygon points="216.93 138.22 210.3 139.81 212.74 145.72 219.38 141.78 216.93 138.22" style="fill:#ff8b7b"></polygon><path d="M262.29,172.64c3.62-6.1-.68-11.58-10.31-11.87a85.75,85.75,0,0,0-15.44.68L237,178C246.35,178.8,258.58,178.9,262.29,172.64Z" style="fill:#263238"></path><path d="M263,162l8,1.12,9.32,3.58a6.93,6.93,0,0,1,4.42,7.15c-.6,6.09-7.44,47.36-7.44,47.36h0a87.41,87.41,0,0,1-25.73-2.43l-8.49-2.1c3.12-22.86,4.26-41.7,6.11-49.16a6.89,6.89,0,0,1,6.5-5.24Z" style="fill:#263238"></path><path d="M282.41,170.31c-6.05-2.95-9.88,11.62-10,23,0,3.31,4,3.06,5.41,2.61C282.58,194.5,289,177.2,282.41,170.31Z" style="opacity:0.2;isolation:isolate"></path><path d="M295.61,244,289,248.85h0s-8.55-4.78-6.76-7.59l2.15-.69a8.66,8.66,0,0,1,6.3.57l3.83,2.25,1.05.62Z" style="fill:#ff8b7b"></path><path d="M297.29,249.49l-2.05,1.29a1.62,1.62,0,0,1-1.51.12L289,248.85l5.51-5.45,1.05.62h0l2.15,3.2A1.62,1.62,0,0,1,297.29,249.49Z" style="fill:#ff8b7b"></path><path d="M277.6,181.81c.06,5.86,5,59.35,4.65,59.69l6.49,0s-1-57.2-.85-61.56C288,175.17,277.56,177.72,277.6,181.81Z" style="fill:#ff8b7b"></path><path d="M285.62,168.46c-6-3.8-10,.74-10.57,10.31a85,85,0,0,0,.23,15.46l14.94-.41C291.27,184.56,291.76,172.35,285.62,168.46Z" style="fill:#263238"></path><path d="M276.13,165.7a5.88,5.88,0,0,1-2.11,3.65,17.45,17.45,0,0,1-3.68,2.23c-1.64.81-3.55,1.64-5.22.91s-2.24-1.75-2.34-3.85c-2,1.83-2.4,2.92-3.95,2.62a3.53,3.53,0,0,1-2.15-2,5.79,5.79,0,0,1-.92-4.26c.44-2.92,3.47-4.87,6.41-5.1a34.69,34.69,0,0,1,8.82.74C273.55,161,276.46,162.68,276.13,165.7Z" style="fill:#407BFF"></path><path d="M273.29,150.29l-4.61,3-6.28,4.1a6.18,6.18,0,0,1,.41,2.21,3.46,3.46,0,0,1-2.5,3.8c-.82.13-2.26,3.79,2.59,4.75A10.21,10.21,0,0,0,271,167c1.21-.91,1.61-1.48,1.08-3C270.53,159.62,271.82,154.35,273.29,150.29Z" style="fill:#ff8b7b"></path><path d="M263.92,156.38l4.1-3.09c0,.13,0,.26,0,.41a10.42,10.42,0,0,1-.19,1.77c-.38,2-2.93,4-5,4.55l0-.44a7.89,7.89,0,0,0-.35-2.1.27.27,0,0,0-.06-.1Z" style="opacity:0.2;isolation:isolate"></path><path d="M261.88,146.14c-1.48-6.36-.06-9.4-2.08-13.1-1.33-1-4.64,1.06-4.08,6.18S261.88,146.14,261.88,146.14Z" style="fill:#263238"></path><path d="M275.08,143.08c-1.31,6.62-1.8,10.54-5.62,13.42-5.78,4.35-13.56,0-14.22-6.91-.6-6.21,1.7-16,8.59-17.6a9.36,9.36,0,0,1,11.25,11.09Z" style="fill:#ff8b7b"></path><path d="M274.39,148.81l-3.62.29.54-4.91-2.48-2.38.16-6.11a68.59,68.59,0,0,1,8.23-.12c.83.09,3.08,3,3.27,4a7.75,7.75,0,0,1-3.2,7.49A16.39,16.39,0,0,1,274.39,148.81Z" style="fill:#263238"></path><path d="M277.1,148.33a6.13,6.13,0,0,1-2.94,3.24c-1.74.87-3-1-2.7-2.88.3-1.69,1.81-3.84,3.64-3.92S277.77,146.57,277.1,148.33Z" style="fill:#ff8b7b"></path><path d="M263.68,143.23c-.06.56-.39,1-.76,1s-.59-.48-.57-1,.39-1,.76-1S263.73,142.67,263.68,143.23Z" style="fill:#263238"></path><path d="M257.25,142.58c-.05.56-.4,1-.77,1s-.61-.49-.56-1,.39-1,.76-1S257.3,142,257.25,142.58Z" style="fill:#263238"></path><path d="M259.43,144.15a18,18,0,0,1-2.93,3.74,2.73,2.73,0,0,0,2.2.72Z" style="fill:#ff5652"></path><path d="M260.42,151.26a4.81,4.81,0,0,0,3.32-1.83.16.16,0,0,0,0-.23.17.17,0,0,0-.23,0,4.63,4.63,0,0,1-3.7,1.73.17.17,0,0,0,0,.33h0A4.87,4.87,0,0,0,260.42,151.26Z" style="fill:#263238"></path><path d="M265.9,142a.3.3,0,0,0,.16-.05.34.34,0,0,0,.09-.46,3.19,3.19,0,0,0-2.59-1.47.33.33,0,0,0-.33.33h0a.32.32,0,0,0,.34.32,2.55,2.55,0,0,1,2,1.17A.3.3,0,0,0,265.9,142Z" style="fill:#263238"></path><path d="M258.44,139.9a.46.46,0,0,0,.07-.16.33.33,0,0,0-.33-.33,3.13,3.13,0,0,0-2.68,1.29.33.33,0,1,0,.55.36,2.48,2.48,0,0,1,2.11-1A.35.35,0,0,0,258.44,139.9Z" style="fill:#263238"></path><path d="M255.48,127.77a2.22,2.22,0,0,0-1.42,2.23,2.53,2.53,0,0,0,1.37,2.25c3.48,1.74,6.45,3.9,12.57,4.16a18,18,0,0,0,2.32.05l7.48-.6a4.26,4.26,0,0,0,.26-4.12C275.79,127.24,265.21,125.69,255.48,127.77Z" style="fill:#263238"></path></g><polygon points="217.7 157.79 217.73 157.82 217.78 157.81 217.74 157.79 217.7 157.79" style="fill:#f0f0f0"></polygon></g></svg>